<svg width="20" height="20" viewBox="0 0 20 20" fill="none" xmlns="http://www.w3.org/2000/svg">
    <path
        d="M10 1.66675C8.35185 1.66675 6.74068 2.15549 5.37027 3.07117C3.99986 3.98685 2.93176 5.28834 2.30103 6.81105C1.6703 8.33377 1.50527 10.0093 1.82681 11.6258C2.14836 13.2423 2.94203 14.7272 4.10747 15.8926C5.27291 17.0581 6.75776 17.8517 8.37427 18.1733C9.99078 18.4948 11.6663 18.3298 13.1891 17.6991C14.7118 17.0683 16.0133 16.0002 16.9289 14.6298C17.8446 13.2594 18.3334 11.6483 18.3334 10.0001C18.3334 8.90573 18.1178 7.8221 17.699 6.81105C17.2802 5.80001 16.6664 4.88135 15.8926 4.10752C15.1188 3.3337 14.2001 2.71987 13.1891 2.30109C12.178 1.8823 11.0944 1.66675 10 1.66675ZM10 16.6667C8.23191 16.6667 6.53622 15.9644 5.28598 14.7141C4.03574 13.4639 3.33336 11.7682 3.33336 10.0001C3.33152 8.51954 3.82754 7.08137 4.74169 5.91675L14.0834 15.2584C12.9187 16.1726 11.4806 16.6686 10 16.6667ZM15.2584 14.0834L5.91669 4.74175C7.08131 3.82759 8.51948 3.33157 10 3.33341C11.7681 3.33341 13.4638 4.03579 14.7141 5.28604C15.9643 6.53628 16.6667 8.23197 16.6667 10.0001C16.6685 11.4806 16.1725 12.9188 15.2584 14.0834Z"
        fill="#89857E" />
</svg>