<svg width="20" height="20" viewBox="0 0 20 20" fill="none" xmlns="http://www.w3.org/2000/svg">
    <path
        d="M15.8333 3.33335H14.1667V2.50002C14.1667 2.27901 14.0789 2.06704 13.9226 1.91076C13.7663 1.75448 13.5544 1.66669 13.3333 1.66669C13.1123 1.66669 12.9004 1.75448 12.7441 1.91076C12.5878 2.06704 12.5 2.27901 12.5 2.50002V3.33335H7.5V2.50002C7.5 2.27901 7.41221 2.06704 7.25593 1.91076C7.09965 1.75448 6.88769 1.66669 6.66667 1.66669C6.44566 1.66669 6.2337 1.75448 6.07742 1.91076C5.92114 2.06704 5.83334 2.27901 5.83334 2.50002V3.33335H4.16667C3.50363 3.33335 2.86775 3.59675 2.3989 4.06559C1.93006 4.53443 1.66667 5.17031 1.66667 5.83335V15.8334C1.66667 16.4964 1.93006 17.1323 2.3989 17.6011C2.86775 18.07 3.50363 18.3334 4.16667 18.3334H15.8333C16.4964 18.3334 17.1323 18.07 17.6011 17.6011C18.0699 17.1323 18.3333 16.4964 18.3333 15.8334V5.83335C18.3333 5.17031 18.0699 4.53443 17.6011 4.06559C17.1323 3.59675 16.4964 3.33335 15.8333 3.33335ZM16.6667 15.8334C16.6667 16.0544 16.5789 16.2663 16.4226 16.4226C16.2663 16.5789 16.0544 16.6667 15.8333 16.6667H4.16667C3.94566 16.6667 3.7337 16.5789 3.57742 16.4226C3.42114 16.2663 3.33334 16.0544 3.33334 15.8334V10H16.6667V15.8334ZM16.6667 8.33335H3.33334V5.83335C3.33334 5.61234 3.42114 5.40038 3.57742 5.2441C3.7337 5.08782 3.94566 5.00002 4.16667 5.00002H5.83334V5.83335C5.83334 6.05437 5.92114 6.26633 6.07742 6.42261C6.2337 6.57889 6.44566 6.66669 6.66667 6.66669C6.88769 6.66669 7.09965 6.57889 7.25593 6.42261C7.41221 6.26633 7.5 6.05437 7.5 5.83335V5.00002H12.5V5.83335C12.5 6.05437 12.5878 6.26633 12.7441 6.42261C12.9004 6.57889 13.1123 6.66669 13.3333 6.66669C13.5544 6.66669 13.7663 6.57889 13.9226 6.42261C14.0789 6.26633 14.1667 6.05437 14.1667 5.83335V5.00002H15.8333C16.0544 5.00002 16.2663 5.08782 16.4226 5.2441C16.5789 5.40038 16.6667 5.61234 16.6667 5.83335V8.33335Z"
        fill="#6C6665" />
</svg>
    