<svg width="20" height="20" viewBox="0 0 20 20" fill="none" xmlns="http://www.w3.org/2000/svg">
    <path
        d="M12.2587 7.32484L8.6837 10.9082L7.30869 9.53317C7.23399 9.44594 7.14206 9.37509 7.03867 9.32507C6.93528 9.27505 6.82267 9.24694 6.70791 9.24251C6.59314 9.23807 6.4787 9.25741 6.37176 9.29931C6.26482 9.3412 6.1677 9.40475 6.08649 9.48596C6.00527 9.56717 5.94173 9.6643 5.89983 9.77124C5.85793 9.87817 5.8386 9.99262 5.84303 10.1074C5.84746 10.2221 5.87557 10.3348 5.92559 10.4381C5.97561 10.5415 6.04646 10.6335 6.13369 10.7082L8.09203 12.6748C8.1699 12.7521 8.26224 12.8132 8.36377 12.8546C8.4653 12.8961 8.57402 12.9171 8.6837 12.9165C8.90231 12.9156 9.11181 12.8288 9.26703 12.6748L13.4337 8.50817C13.5118 8.4307 13.5738 8.33853 13.6161 8.23698C13.6584 8.13544 13.6802 8.02651 13.6802 7.9165C13.6802 7.80649 13.6584 7.69757 13.6161 7.59602C13.5738 7.49447 13.5118 7.40231 13.4337 7.32484C13.2776 7.16963 13.0663 7.08251 12.8462 7.08251C12.626 7.08251 12.4148 7.16963 12.2587 7.32484ZM9.99203 1.6665C8.34385 1.6665 6.73269 2.15525 5.36228 3.07092C3.99187 3.9866 2.92376 5.28809 2.29303 6.81081C1.6623 8.33353 1.49727 10.0091 1.81882 11.6256C2.14036 13.2421 2.93403 14.727 4.09947 15.8924C5.26491 17.0578 6.74977 17.8515 8.36628 18.173C9.98278 18.4946 11.6583 18.3296 13.1811 17.6988C14.7038 17.0681 16.0053 16 16.9209 14.6296C17.8366 13.2592 18.3254 11.648 18.3254 9.99984C18.3254 8.90549 18.1098 7.82186 17.691 6.81081C17.2722 5.79976 16.6584 4.8811 15.8846 4.10728C15.1108 3.33346 14.1921 2.71963 13.1811 2.30084C12.17 1.88205 11.0864 1.6665 9.99203 1.6665ZM9.99203 16.6665C8.67349 16.6665 7.38455 16.2755 6.28823 15.543C5.1919 14.8104 4.33742 13.7692 3.83283 12.5511C3.32825 11.3329 3.19623 9.99244 3.45346 8.69924C3.7107 7.40603 4.34563 6.21814 5.27798 5.28579C6.21033 4.35344 7.39822 3.7185 8.69143 3.46127C9.98463 3.20403 11.3251 3.33606 12.5433 3.84064C13.7614 4.34522 14.8026 5.19971 15.5352 6.29604C16.2677 7.39236 16.6587 8.6813 16.6587 9.99984C16.6587 11.7679 15.9563 13.4636 14.7061 14.7139C13.4558 15.9641 11.7601 16.6665 9.99203 16.6665Z"
        fill="#0D8881" />
</svg>