<svg width="18" height="24" viewBox="0 0 18 24" fill="none" xmlns="http://www.w3.org/2000/svg">
    <g clip-path="url(#clip0_1323_3748)">
        <path
            d="M9 4C13.4184 4 17 7.5816 17 12C17 16.4184 13.4184 20 9 20C4.5816 20 1 16.4184 1 12C1 7.5816 4.5816 4 9 4ZM9 5.6C7.4078 5.60086 5.87309 6.19519 4.69559 7.26691C3.51809 8.33863 2.78235 9.81078 2.63205 11.3959C2.48176 12.981 2.9277 14.5652 3.88279 15.8391C4.83789 17.113 6.23354 17.9852 7.79721 18.2853C9.36087 18.5854 10.9802 18.2919 12.3391 17.462C13.6979 16.6322 14.6987 15.3256 15.1459 13.7975C15.5931 12.2694 15.4546 10.6295 14.7575 9.19798C14.0604 7.76649 12.8548 6.64624 11.376 6.056C11.4465 6.5423 11.3661 7.03854 11.1456 7.47767C10.925 7.91679 10.575 8.27764 10.1428 8.51145C9.71061 8.74526 9.21705 8.84077 8.72883 8.78507C8.2406 8.72937 7.78124 8.52515 7.4128 8.2C7.25979 8.0655 7.16385 7.87769 7.14456 7.67489C7.12527 7.47208 7.18408 7.26955 7.30899 7.10862C7.4339 6.94768 7.6155 6.84047 7.81675 6.80883C8.018 6.7772 8.22374 6.82354 8.392 6.9384L8.4712 7C8.56829 7.08563 8.68471 7.14641 8.81047 7.17714C8.93623 7.20787 9.06756 7.20761 9.1932 7.17641C9.31884 7.1452 9.43502 7.08397 9.53179 6.99798C9.62855 6.91198 9.703 6.80378 9.74874 6.68268C9.79449 6.56157 9.81016 6.43118 9.79441 6.30268C9.77866 6.17419 9.73197 6.05144 9.65833 5.94496C9.5847 5.83849 9.48633 5.75147 9.37166 5.69139C9.25699 5.6313 9.12946 5.59994 9 5.6ZM11.112 14.5856C11.2749 14.7214 11.3772 14.9164 11.3964 15.1276C11.4156 15.3388 11.3501 15.549 11.2144 15.712C10.6768 16.3576 9.8992 16.8 9 16.8C8.1008 16.8 7.3232 16.3576 6.7856 15.712C6.65579 15.5484 6.5951 15.3405 6.6165 15.1328C6.63791 14.925 6.7397 14.7339 6.90014 14.6002C7.06059 14.4665 7.26695 14.4008 7.47515 14.4172C7.68336 14.4336 7.87689 14.5308 8.0144 14.688C8.3016 15.032 8.6528 15.2 9 15.2C9.3472 15.2 9.6984 15.032 9.9856 14.688C10.1214 14.5251 10.3164 14.4228 10.5276 14.4036C10.7388 14.3844 10.949 14.4499 11.112 14.5856ZM6.2 10.4C6.51826 10.4 6.82348 10.5264 7.04853 10.7515C7.27357 10.9765 7.4 11.2817 7.4 11.6C7.4 11.9183 7.27357 12.2235 7.04853 12.4485C6.82348 12.6736 6.51826 12.8 6.2 12.8C5.88174 12.8 5.57652 12.6736 5.35147 12.4485C5.12643 12.2235 5 11.9183 5 11.6C5 11.2817 5.12643 10.9765 5.35147 10.7515C5.57652 10.5264 5.88174 10.4 6.2 10.4ZM11.8 10.4C12.1183 10.4 12.4235 10.5264 12.6485 10.7515C12.8736 10.9765 13 11.2817 13 11.6C13 11.9183 12.8736 12.2235 12.6485 12.4485C12.4235 12.6736 12.1183 12.8 11.8 12.8C11.4817 12.8 11.1765 12.6736 10.9515 12.4485C10.7264 12.2235 10.6 11.9183 10.6 11.6C10.6 11.2817 10.7264 10.9765 10.9515 10.7515C11.1765 10.5264 11.4817 10.4 11.8 10.4Z"
            fill="#0D8881" />
    </g>
    <defs>
        <clipPath id="clip0_1323_3748">
            <rect width="18" height="24" fill="white" />
        </clipPath>
    </defs>
</svg>