<svg width="20" height="20" viewBox="0 0 20 20" fill="none" xmlns="http://www.w3.org/2000/svg">
    <path
        d="M7.74166 11.075L3.33332 15.4917V14.1667C3.33332 13.9456 3.24553 13.7337 3.08925 13.5774C2.93297 13.4211 2.721 13.3333 2.49999 13.3333C2.27898 13.3333 2.06701 13.4211 1.91073 13.5774C1.75445 13.7337 1.66666 13.9456 1.66666 14.1667V17.5C1.66797 17.6089 1.69062 17.7165 1.73332 17.8167C1.81789 18.0203 1.9797 18.1821 2.18332 18.2667C2.28351 18.3094 2.39109 18.332 2.49999 18.3333H5.83332C6.05434 18.3333 6.2663 18.2455 6.42258 18.0892C6.57886 17.933 6.66666 17.721 6.66666 17.5C6.66666 17.279 6.57886 17.067 6.42258 16.9107C6.2663 16.7545 6.05434 16.6667 5.83332 16.6667H4.50832L8.92499 12.2583C9.08191 12.1014 9.17007 11.8886 9.17007 11.6667C9.17007 11.4447 9.08191 11.2319 8.92499 11.075C8.76807 10.9181 8.55524 10.8299 8.33332 10.8299C8.1114 10.8299 7.89858 10.9181 7.74166 11.075ZM4.50832 3.33332H5.83332C6.05434 3.33332 6.2663 3.24553 6.42258 3.08925C6.57886 2.93297 6.66666 2.721 6.66666 2.49999C6.66666 2.27898 6.57886 2.06701 6.42258 1.91073C6.2663 1.75445 6.05434 1.66666 5.83332 1.66666H2.49999C2.39109 1.66797 2.28351 1.69062 2.18332 1.73332C1.9797 1.81789 1.81789 1.9797 1.73332 2.18332C1.69062 2.28351 1.66797 2.39109 1.66666 2.49999V5.83332C1.66666 6.05434 1.75445 6.2663 1.91073 6.42258C2.06701 6.57886 2.27898 6.66666 2.49999 6.66666C2.721 6.66666 2.93297 6.57886 3.08925 6.42258C3.24553 6.2663 3.33332 6.05434 3.33332 5.83332V4.50832L7.74166 8.92499C7.81913 9.0031 7.91129 9.06509 8.01284 9.1074C8.11439 9.14971 8.22331 9.17149 8.33332 9.17149C8.44333 9.17149 8.55225 9.14971 8.6538 9.1074C8.75535 9.06509 8.84752 9.0031 8.92499 8.92499C9.0031 8.84752 9.06509 8.75535 9.1074 8.6538C9.14971 8.55225 9.17149 8.44333 9.17149 8.33332C9.17149 8.22331 9.14971 8.11439 9.1074 8.01284C9.06509 7.91129 9.0031 7.81913 8.92499 7.74166L4.50832 3.33332ZM17.5 13.3333C17.279 13.3333 17.067 13.4211 16.9107 13.5774C16.7545 13.7337 16.6667 13.9456 16.6667 14.1667V15.4917L12.2583 11.075C12.1014 10.9181 11.8886 10.8299 11.6667 10.8299C11.4447 10.8299 11.2319 10.9181 11.075 11.075C10.9181 11.2319 10.8299 11.4447 10.8299 11.6667C10.8299 11.8886 10.9181 12.1014 11.075 12.2583L15.4917 16.6667H14.1667C13.9456 16.6667 13.7337 16.7545 13.5774 16.9107C13.4211 17.067 13.3333 17.279 13.3333 17.5C13.3333 17.721 13.4211 17.933 13.5774 18.0892C13.7337 18.2455 13.9456 18.3333 14.1667 18.3333H17.5C17.6089 18.332 17.7165 18.3094 17.8167 18.2667C18.0203 18.1821 18.1821 18.0203 18.2667 17.8167C18.3094 17.7165 18.332 17.6089 18.3333 17.5V14.1667C18.3333 13.9456 18.2455 13.7337 18.0892 13.5774C17.933 13.4211 17.721 13.3333 17.5 13.3333ZM18.2667 2.18332C18.1821 1.9797 18.0203 1.81789 17.8167 1.73332C17.7165 1.69062 17.6089 1.66797 17.5 1.66666H14.1667C13.9456 1.66666 13.7337 1.75445 13.5774 1.91073C13.4211 2.06701 13.3333 2.27898 13.3333 2.49999C13.3333 2.721 13.4211 2.93297 13.5774 3.08925C13.7337 3.24553 13.9456 3.33332 14.1667 3.33332H15.4917L11.075 7.74166C10.9969 7.81913 10.9349 7.91129 10.8926 8.01284C10.8503 8.11439 10.8285 8.22331 10.8285 8.33332C10.8285 8.44333 10.8503 8.55225 10.8926 8.6538C10.9349 8.75535 10.9969 8.84752 11.075 8.92499C11.1525 9.0031 11.2446 9.06509 11.3462 9.1074C11.4477 9.14971 11.5566 9.17149 11.6667 9.17149C11.7767 9.17149 11.8856 9.14971 11.9871 9.1074C12.0887 9.06509 12.1809 9.0031 12.2583 8.92499L16.6667 4.50832V5.83332C16.6667 6.05434 16.7545 6.2663 16.9107 6.42258C17.067 6.57886 17.279 6.66666 17.5 6.66666C17.721 6.66666 17.933 6.57886 18.0892 6.42258C18.2455 6.2663 18.3333 6.05434 18.3333 5.83332V2.49999C18.332 2.39109 18.3094 2.28351 18.2667 2.18332Z"
        fill="#0D8881" />
</svg>