<svg width="85" height="84" viewBox="0 0 85 84" fill="none" xmlns="http://www.w3.org/2000/svg">
    <path
        d="M43.0255 81.5C65.3428 81.5 83.4998 63.8508 83.4998 42C83.4998 20.1492 65.3428 2.5 43.0255 2.5C20.7082 2.5 2.55127 20.1492 2.55127 42C2.55127 63.8508 20.7082 81.5 43.0255 81.5Z"
        stroke="#DED7CD" stroke-width="3" />
    <path
        d="M43.0255 82C36.7327 82 30.5243 80.5886 24.8804 77.8749C19.2366 75.1613 14.3086 71.2181 10.4778 66.3505C6.64697 61.4828 4.01596 55.8212 2.7883 49.8036C1.56063 43.786 1.76921 37.5737 3.39791 31.6472C5.02661 25.7208 8.03177 20.2391 12.1809 15.6262C16.33 11.0133 21.512 7.39278 27.3258 5.04482C33.1396 2.69687 39.4294 1.68437 45.7087 2.08565C51.9881 2.48693 58.0886 4.29124 63.5383 7.35899"
        stroke="#0D8881" stroke-width="3" />
</svg>