<svg width="20" height="20" viewBox="0 0 20 20" fill="none" xmlns="http://www.w3.org/2000/svg">
    <path
        d="M13.0384 10.5707C13.8554 9.92791 14.4518 9.04646 14.7445 8.04898C15.0372 7.0515 15.0117 5.98758 14.6716 5.00525C14.3315 4.02292 13.6937 3.17102 12.8468 2.56807C12 1.96513 10.9863 1.64111 9.94678 1.64111C8.90723 1.64111 7.89354 1.96513 7.04672 2.56807C6.1999 3.17102 5.56206 4.02292 5.22195 5.00525C4.88184 5.98758 4.85637 7.0515 5.14908 8.04898C5.44178 9.04646 6.03811 9.92791 6.85511 10.5707C5.45517 11.1316 4.23368 12.0618 3.32085 13.2623C2.40802 14.4628 1.83808 15.8884 1.67177 17.3874C1.65974 17.4968 1.66937 17.6075 1.70013 17.7132C1.73089 17.819 1.78216 17.9176 1.85103 18.0035C1.99012 18.1769 2.19243 18.288 2.41344 18.3124C2.63446 18.3367 2.85607 18.2722 3.02955 18.1331C3.20302 17.994 3.31413 17.7917 3.33844 17.5707C3.52143 15.9417 4.29818 14.4372 5.52029 13.3447C6.7424 12.2522 8.32419 11.6482 9.96344 11.6482C11.6027 11.6482 13.1845 12.2522 14.4066 13.3447C15.6287 14.4372 16.4055 15.9417 16.5884 17.5707C16.6111 17.7755 16.7088 17.9646 16.8627 18.1015C17.0166 18.2385 17.2158 18.3136 17.4218 18.3124H17.5134C17.7319 18.2872 17.9315 18.1768 18.0689 18.0051C18.2063 17.8334 18.2702 17.6143 18.2468 17.3957C18.0797 15.8925 17.5067 14.4632 16.5891 13.2609C15.6716 12.0585 14.4442 11.1286 13.0384 10.5707ZM9.94678 9.97903C9.2875 9.97903 8.64304 9.78353 8.09487 9.41726C7.54671 9.05099 7.11947 8.53039 6.86718 7.92131C6.61488 7.31222 6.54887 6.642 6.67749 5.99539C6.80611 5.34879 7.12358 4.75485 7.58975 4.28867C8.05593 3.8225 8.64987 3.50503 9.29647 3.37641C9.94308 3.24779 10.6133 3.3138 11.2224 3.56609C11.8315 3.81839 12.3521 4.24563 12.7183 4.79379C13.0846 5.34196 13.2801 5.98642 13.2801 6.64569C13.2801 7.52975 12.9289 8.37759 12.3038 9.00272C11.6787 9.62784 10.8308 9.97903 9.94678 9.97903Z"
        fill="#0D8881" />
</svg>