<svg width="18" height="24" viewBox="0 0 18 24" fill="none" xmlns="http://www.w3.org/2000/svg">
    <path
        d="M12.1018 12.47C12.6353 12.0081 13.0633 11.4369 13.3566 10.795C13.65 10.1532 13.8018 9.45571 13.8018 8.75C13.8018 7.42392 13.275 6.15215 12.3373 5.21447C11.3996 4.27678 10.1278 3.75 8.80176 3.75C7.47568 3.75 6.20391 4.27678 5.26622 5.21447C4.32854 6.15215 3.80176 7.42392 3.80176 8.75C3.80175 9.45571 3.95356 10.1532 4.24688 10.795C4.54021 11.4369 4.96818 12.0081 5.50176 12.47C4.1019 13.1039 2.91422 14.1275 2.08074 15.4185C1.24725 16.7096 0.80323 18.2133 0.801758 19.75C0.801758 20.0152 0.907115 20.2696 1.09465 20.4571C1.28219 20.6446 1.53654 20.75 1.80176 20.75C2.06697 20.75 2.32133 20.6446 2.50886 20.4571C2.6964 20.2696 2.80176 20.0152 2.80176 19.75C2.80176 18.1587 3.4339 16.6326 4.55912 15.5074C5.68434 14.3821 7.21046 13.75 8.80176 13.75C10.3931 13.75 11.9192 14.3821 13.0444 15.5074C14.1696 16.6326 14.8018 18.1587 14.8018 19.75C14.8018 20.0152 14.9071 20.2696 15.0947 20.4571C15.2822 20.6446 15.5365 20.75 15.8018 20.75C16.067 20.75 16.3213 20.6446 16.5089 20.4571C16.6964 20.2696 16.8018 20.0152 16.8018 19.75C16.8003 18.2133 16.3563 16.7096 15.5228 15.4185C14.6893 14.1275 13.5016 13.1039 12.1018 12.47ZM8.80176 11.75C8.20841 11.75 7.62839 11.5741 7.13505 11.2444C6.6417 10.9148 6.25718 10.4462 6.03012 9.89805C5.80306 9.34987 5.74365 8.74667 5.8594 8.16473C5.97516 7.58279 6.26088 7.04824 6.68044 6.62868C7.1 6.20912 7.63454 5.9234 8.21649 5.80764C8.79843 5.69189 9.40163 5.7513 9.94981 5.97836C10.498 6.20542 10.9665 6.58994 11.2962 7.08329C11.6258 7.57664 11.8018 8.15666 11.8018 8.75C11.8018 9.54565 11.4857 10.3087 10.9231 10.8713C10.3605 11.4339 9.59741 11.75 8.80176 11.75Z"
        fill="#0D8881" />
</svg>