<svg width="20" height="20" viewBox="0 0 20 20" fill="none" xmlns="http://www.w3.org/2000/svg">
<g clip-path="url(#clip0_1133_5541)">
<path fill-rule="evenodd" clip-rule="evenodd" d="M8.33333 2.5C7.22826 2.5 6.16846 2.93899 5.38706 3.72039C4.60565 4.50179 4.16667 5.5616 4.16667 6.66667V7.64167C3.6791 7.81418 3.25702 8.1336 2.95853 8.55596C2.66005 8.97831 2.49985 9.48282 2.5 10V14.1667C2.5 14.6087 2.67559 15.0326 2.98816 15.3452C3.30072 15.6577 3.72464 15.8333 4.16667 15.8333V16.6667C4.16667 16.8877 4.25446 17.0996 4.41074 17.2559C4.56702 17.4122 4.77899 17.5 5 17.5C5.22101 17.5 5.43298 17.4122 5.58926 17.2559C5.74554 17.0996 5.83333 16.8877 5.83333 16.6667V15.8333H14.1667V16.6667C14.1667 16.8877 14.2545 17.0996 14.4107 17.2559C14.567 17.4122 14.779 17.5 15 17.5C15.221 17.5 15.433 17.4122 15.5893 17.2559C15.7455 17.0996 15.8333 16.8877 15.8333 16.6667V15.8333C16.2754 15.8333 16.6993 15.6577 17.0118 15.3452C17.3244 15.0326 17.5 14.6087 17.5 14.1667V10C17.5001 9.48282 17.34 8.97831 17.0415 8.55596C16.743 8.1336 16.3209 7.81418 15.8333 7.64167V6.66667C15.8333 5.5616 15.3943 4.50179 14.6129 3.72039C13.8315 2.93899 12.7717 2.5 11.6667 2.5H8.33333ZM14.1667 7.64167V6.66667C14.1667 6.00363 13.9033 5.36774 13.4344 4.8989C12.9656 4.43006 12.3297 4.16667 11.6667 4.16667H8.33333C7.67029 4.16667 7.03441 4.43006 6.56557 4.8989C6.09673 5.36774 5.83333 6.00363 5.83333 6.66667V7.64167C6.80417 7.98583 7.5 8.91167 7.5 10V10.8333H12.5V10C12.5 8.91167 13.1958 7.98583 14.1667 7.64167ZM4.16667 10C4.16667 9.77899 4.25446 9.56702 4.41074 9.41074C4.56702 9.25446 4.77899 9.16667 5 9.16667C5.22101 9.16667 5.43298 9.25446 5.58926 9.41074C5.74554 9.56702 5.83333 9.77899 5.83333 10V11.6667C5.83333 11.8877 5.92113 12.0996 6.07741 12.2559C6.23369 12.4122 6.44565 12.5 6.66667 12.5H13.3333C13.5543 12.5 13.7663 12.4122 13.9226 12.2559C14.0789 12.0996 14.1667 11.8877 14.1667 11.6667V10C14.1667 9.77899 14.2545 9.56702 14.4107 9.41074C14.567 9.25446 14.779 9.16667 15 9.16667C15.221 9.16667 15.433 9.25446 15.5893 9.41074C15.7455 9.56702 15.8333 9.77899 15.8333 10V14.1667H4.16667V10Z" fill="#89857E"/>
</g>
<defs>
<clipPath id="clip0_1133_5541">
<rect width="20" height="20" fill="white"/>
</clipPath>
</defs>
</svg>
