<svg width="20" height="20" viewBox="0 0 20 20" fill="none" xmlns="http://www.w3.org/2000/svg">
<path d="M16.0784 5.375V4.125H10.3384H3.9209V5.375H10.3384H16.0784Z" fill="#89857E"/>
<path d="M17.9085 7.04816C18.3629 6.58963 18.6713 6.00685 18.795 5.37328C18.9187 4.7397 18.852 4.0837 18.6035 3.48795C18.3549 2.8922 17.9355 2.38337 17.3982 2.0256C16.8609 1.66783 16.2297 1.47713 15.5841 1.47754H4.41537C3.76984 1.47713 3.13864 1.66783 2.60132 2.0256C2.064 2.38337 1.64462 2.8922 1.39604 3.48795C1.14746 4.0837 1.08081 4.7397 1.20448 5.37328C1.32816 6.00685 1.63662 6.58963 2.091 7.04816C1.84329 7.19244 1.63129 7.39069 1.47075 7.62818C1.31021 7.86567 1.20526 8.13629 1.16371 8.41992C1.12215 8.70355 1.14505 8.9929 1.23071 9.26647C1.31638 9.54003 1.46259 9.79077 1.6585 10C1.46259 10.2093 1.31638 10.46 1.23071 10.7336C1.14505 11.0072 1.12215 11.2965 1.16371 11.5802C1.20526 11.8638 1.31021 12.1344 1.47075 12.3719C1.63129 12.6094 1.84329 12.8076 2.091 12.9519C1.63662 13.4104 1.32816 13.9932 1.20448 14.6268C1.08081 15.2604 1.14746 15.9164 1.39604 16.5121C1.64462 17.1079 2.064 17.6167 2.60132 17.9745C3.13864 18.3323 3.76984 18.523 4.41537 18.5225H15.5841C16.2297 18.523 16.8609 18.3323 17.3982 17.9745C17.9355 17.6167 18.3549 17.1079 18.6035 16.5121C18.852 15.9164 18.9187 15.2604 18.795 14.6268C18.6713 13.9932 18.3629 13.4104 17.9085 12.9519C18.1562 12.8076 18.3682 12.6094 18.5287 12.3719C18.6893 12.1344 18.7942 11.8638 18.8358 11.5802C18.8773 11.2965 18.8544 11.0072 18.7688 10.7336C18.6831 10.46 18.5369 10.2093 18.341 10C18.5369 9.79077 18.6831 9.54003 18.7688 9.26647C18.8544 8.9929 18.8773 8.70355 18.8358 8.41992C18.7942 8.13629 18.6893 7.86567 18.5287 7.62818C18.3682 7.39069 18.1562 7.19244 17.9085 7.04816ZM17.606 11.3019C17.6058 11.4814 17.5345 11.6535 17.4076 11.7804C17.2807 11.9073 17.1086 11.9786 16.9291 11.9788H3.07037C2.89086 11.9788 2.71869 11.9075 2.59175 11.7805C2.46481 11.6536 2.3935 11.4814 2.3935 11.3019C2.3935 11.1224 2.46481 10.9502 2.59175 10.8233C2.71869 10.6964 2.89086 10.625 3.07037 10.625H16.9291C17.1086 10.6252 17.2807 10.6966 17.4076 10.8235C17.5345 10.9504 17.6058 11.1224 17.606 11.3019ZM10.3385 9.37504H3.07037C2.89086 9.37504 2.71869 9.30373 2.59175 9.17679C2.46481 9.04985 2.3935 8.87768 2.3935 8.69816C2.3935 8.51865 2.46481 8.34648 2.59175 8.21954C2.71869 8.0926 2.89086 8.02129 3.07037 8.02129H16.9291C17.1086 8.02129 17.2808 8.0926 17.4077 8.21954C17.5347 8.34648 17.606 8.51865 17.606 8.69816C17.606 8.87768 17.5347 9.04985 17.4077 9.17679C17.2808 9.30373 17.1086 9.37504 16.9291 9.37504H10.3385ZM4.41537 2.72754H15.5841C16.1204 2.72754 16.6346 2.94056 17.0138 3.31973C17.393 3.69891 17.606 4.21318 17.606 4.74941C17.606 5.28565 17.393 5.79992 17.0138 6.1791C16.6346 6.55827 16.1204 6.77129 15.5841 6.77129H4.41537C3.87914 6.77129 3.36487 6.55827 2.98569 6.1791C2.60652 5.79992 2.3935 5.28565 2.3935 4.74941C2.3935 4.21318 2.60652 3.69891 2.98569 3.31973C3.36487 2.94056 3.87914 2.72754 4.41537 2.72754ZM15.5841 17.2725H4.41537C3.87914 17.2725 3.36487 17.0595 2.98569 16.6803C2.60652 16.3012 2.3935 15.7869 2.3935 15.2507C2.3935 14.7144 2.60652 14.2002 2.98569 13.821C3.36487 13.4418 3.87914 13.2288 4.41537 13.2288H15.5841C15.8496 13.2288 16.1126 13.2811 16.3579 13.3827C16.6032 13.4843 16.8261 13.6332 17.0138 13.821C17.2016 14.0087 17.3505 14.2316 17.4521 14.4769C17.5537 14.7222 17.606 14.9851 17.606 15.2507C17.606 15.5162 17.5537 15.7791 17.4521 16.0244C17.3505 16.2697 17.2016 16.4926 17.0138 16.6803C16.8261 16.8681 16.6032 17.017 16.3579 17.1186C16.1126 17.2202 15.8496 17.2725 15.5841 17.2725Z" fill="#89857E"/>
<path d="M3.9209 14.6257V15.8757H10.3384H16.0784V14.6257H10.3384H3.9209Z" fill="#89857E"/>
</svg>
