<svg width="20" height="20" viewBox="0 0 20 20" fill="none" xmlns="http://www.w3.org/2000/svg">
<g clip-path="url(#clip0_1134_5571)">
<path fill-rule="evenodd" clip-rule="evenodd" d="M5.22342 15.6267L2.75425 14.3925C2.40314 14.2169 2.12527 13.923 1.96961 13.5626C1.81396 13.2023 1.79052 12.7985 1.90342 12.4225L3.78842 6.14C3.95179 5.59561 4.22481 5.09041 4.59068 4.65546C4.95656 4.22051 5.40755 3.86501 5.91592 3.61083L7.60842 2.76417C7.95563 2.59047 8.33852 2.50003 8.72675 2.5H11.2734C11.6617 2.50003 12.0445 2.59047 12.3918 2.76417L14.0834 3.61083C14.5918 3.86501 15.0428 4.22051 15.4087 4.65546C15.7745 5.09041 16.0476 5.59561 16.2109 6.14L18.0959 12.4225C18.2088 12.7985 18.1854 13.2023 18.0297 13.5626C17.8741 13.923 17.5962 14.2169 17.2451 14.3925L14.7759 15.6267C14.6368 16.1629 14.3236 16.6378 13.8855 16.9768C13.4473 17.3158 12.9091 17.4999 12.3551 17.5H7.64509C7.09096 17.5 6.5525 17.3161 6.11421 16.9771C5.67592 16.638 5.3626 16.163 5.22342 15.6267ZM8.35425 4.255C8.46988 4.19705 8.59741 4.1668 8.72675 4.16667H11.2734C11.4028 4.1668 11.5303 4.19705 11.6459 4.255L11.8026 4.3325L10.0001 7.48667L8.19759 4.33333L8.35425 4.255ZM10.8334 9.38833L13.2951 5.08L13.3393 5.10167C13.6442 5.25406 13.9148 5.46722 14.1343 5.72805C14.3539 5.98887 14.5178 6.29184 14.6159 6.61833L16.5001 12.9017L14.7618 13.7708L14.5809 11.5975C14.5718 11.4884 14.5414 11.3821 14.4912 11.2848C14.4411 11.1875 14.3722 11.101 14.2887 11.0303C14.2051 10.9595 14.1084 10.906 14.0041 10.8726C13.8999 10.8392 13.79 10.8267 13.6809 10.8358C13.5718 10.8449 13.4656 10.8754 13.3682 10.9255C13.2709 10.9757 13.1844 11.0445 13.1137 11.1281C13.043 11.2117 12.9894 11.3083 12.956 11.4126C12.9227 11.5169 12.9102 11.6267 12.9193 11.7358L13.1859 14.9308C13.1955 15.0457 13.1811 15.1614 13.1437 15.2704C13.1063 15.3795 13.0466 15.4796 12.9686 15.5644C12.8905 15.6492 12.7956 15.7169 12.69 15.7632C12.5844 15.8095 12.4704 15.8334 12.3551 15.8333H10.8334V9.38833ZM9.16675 9.38833L6.70509 5.08L6.66092 5.10167C6.35595 5.25406 6.08538 5.46722 5.86583 5.72805C5.64628 5.98887 5.48239 6.29184 5.38425 6.61833L3.50009 12.9025L5.23925 13.7717L5.42009 11.5983C5.43843 11.378 5.54356 11.1739 5.71234 11.0311C5.88112 10.8883 6.09974 10.8183 6.32009 10.8367C6.54044 10.855 6.74448 10.9601 6.88732 11.1289C7.03016 11.2977 7.1001 11.5163 7.08175 11.7367L6.81509 14.9317C6.80565 15.0464 6.82009 15.1619 6.85751 15.2708C6.89493 15.3797 6.95451 15.4797 7.0325 15.5644C7.11048 15.6491 7.20518 15.7167 7.31062 15.763C7.41605 15.8093 7.52994 15.8333 7.64509 15.8333H9.16675V9.38833Z" fill="#89857E"/>
</g>
<defs>
<clipPath id="clip0_1134_5571">
<rect width="20" height="20" fill="white"/>
</clipPath>
</defs>
</svg>
