<svg width="20" height="20" viewBox="0 0 20 20" fill="none" xmlns="http://www.w3.org/2000/svg">
<g clip-path="url(#clip0_1133_5531)">
<path fill-rule="evenodd" clip-rule="evenodd" d="M6.66699 2.50008C6.66699 2.03985 7.04009 1.66675 7.50033 1.66675H10.8337C11.2939 1.66675 11.667 2.03985 11.667 2.50008C11.667 2.96031 11.2939 3.33341 10.8337 3.33341V5.00008H12.1324C13.2085 5.00008 14.1638 5.68866 14.5041 6.70951L15.5343 9.80017C15.7326 10.3949 15.8337 11.0178 15.8337 11.6448V15.8334C15.8337 17.2142 14.7144 18.3334 13.3337 18.3334H6.66699C5.28628 18.3334 4.16699 17.2142 4.16699 15.8334V11.6448C4.16699 11.0178 4.26808 10.3949 4.46634 9.80017L5.49655 6.70951C5.83683 5.68866 6.79218 5.00008 7.86826 5.00008H9.16699V3.33341H7.50033C7.04009 3.33341 6.66699 2.96031 6.66699 2.50008ZM7.86826 6.66675C7.50957 6.66675 7.19112 6.89627 7.07769 7.23656L6.43429 9.16675H8.33366C8.79391 9.16675 9.16699 9.53983 9.16699 10.0001C9.16699 10.4603 8.79391 10.8334 8.33366 10.8334H5.91343C5.86046 11.1002 5.83366 11.372 5.83366 11.6448V15.8334C5.83366 16.2937 6.20676 16.6667 6.66699 16.6667H13.3337C13.7939 16.6667 14.167 16.2937 14.167 15.8334V11.6448C14.167 11.197 14.0948 10.7521 13.9532 10.3272L12.923 7.23656C12.8095 6.89627 12.4911 6.66675 12.1324 6.66675H7.86826Z" fill="#89857E"/>
</g>
<defs>
<clipPath id="clip0_1133_5531">
<rect width="20" height="20" fill="white"/>
</clipPath>
</defs>
</svg>
