<svg width="20" height="20" viewBox="0 0 20 20" fill="none" xmlns="http://www.w3.org/2000/svg">
<g clip-path="url(#clip0_1138_5608)">
<path fill-rule="evenodd" clip-rule="evenodd" d="M6.86594 2.75C6.76793 2.75 6.67393 2.78894 6.60462 2.85824C6.53531 2.92755 6.49638 3.02155 6.49638 3.11957V6.10507C6.49638 6.20309 6.53531 6.29709 6.60462 6.36639C6.67393 6.4357 6.76793 6.47464 6.86594 6.47464H12.837C12.935 6.47464 13.029 6.4357 13.0983 6.36639C13.1676 6.29709 13.2065 6.20309 13.2065 6.10507V3.11957C13.2065 3.02155 13.1676 2.92755 13.0983 2.85824C13.029 2.78894 12.935 2.75 12.837 2.75H6.86594ZM5.54396 1.79758C5.89457 1.44697 6.3701 1.25 6.86594 1.25H12.837C13.3328 1.25 13.8083 1.44697 14.1589 1.79758C14.5095 2.14819 14.7065 2.62373 14.7065 3.11957V6.10507C14.7065 6.60091 14.5095 7.07644 14.1589 7.42705C13.9927 7.59334 13.7983 7.72506 13.587 7.81761V10.2065H13.9565C14.3534 10.2065 14.734 10.3642 15.0146 10.6448C15.1646 10.7948 15.2256 10.9766 15.2442 11.0322L15.2449 11.0342C15.2745 11.1223 15.2962 11.215 15.3127 11.297C15.3463 11.4634 15.3721 11.6569 15.3916 11.8357C15.4302 12.1881 15.4529 12.5653 15.4529 12.7029C15.4529 13.0998 15.2952 13.4804 15.0146 13.761C14.7348 14.0408 14.3557 14.1983 13.9601 14.1993V18.1667C13.9601 18.5809 13.6244 18.9167 13.2101 18.9167C12.7959 18.9167 12.4601 18.5809 12.4601 18.1667V14.1993H7.24275V18.1667C7.24275 18.5809 6.90697 18.9167 6.49275 18.9167C6.07854 18.9167 5.74275 18.5809 5.74275 18.1667V14.1993C5.3472 14.1983 4.96805 14.0408 4.68828 13.761C4.40765 13.4804 4.25 13.0998 4.25 12.7029C4.25 12.5653 4.27272 12.1881 4.31126 11.8357C4.33082 11.6569 4.35664 11.4634 4.39017 11.297C4.40667 11.215 4.42842 11.1223 4.45801 11.0342L4.45868 11.0322C4.47732 10.9766 4.5383 10.7948 4.68828 10.6448C4.9689 10.3642 5.34951 10.2065 5.74638 10.2065H6.11594V7.81761C5.90462 7.72506 5.71024 7.59334 5.54396 7.42705C5.19335 7.07644 4.99638 6.60091 4.99638 6.10507V3.11957C4.99638 2.62373 5.19335 2.14819 5.54396 1.79758ZM7.61594 7.97464V10.2065H12.087V7.97464H7.61594ZM5.84052 11.7065C5.82708 11.7913 5.81417 11.8909 5.80237 11.9988C5.78513 12.1564 5.77177 12.3175 5.76277 12.4509C5.75828 12.5174 5.75498 12.5754 5.75283 12.6212C5.75176 12.6442 5.75102 12.6631 5.75056 12.678L5.75009 12.6957L5.75004 12.6993H13.9529L13.9528 12.6957L13.9523 12.678C13.9519 12.6631 13.9511 12.6442 13.9501 12.6212C13.9479 12.5754 13.9446 12.5174 13.9401 12.4509C13.9311 12.3175 13.9178 12.1564 13.9005 11.9988C13.8887 11.8909 13.8758 11.7913 13.8624 11.7065H5.84052Z" fill="#89857E"/>
</g>
<defs>
<clipPath id="clip0_1138_5608">
<rect width="20" height="20" fill="white"/>
</clipPath>
</defs>
</svg>
