<svg width="20" height="20" viewBox="0 0 20 20" fill="none" xmlns="http://www.w3.org/2000/svg">
<g clip-path="url(#clip0_1134_5557)">
<path d="M14.9997 1.66675C15.4202 1.66662 15.8251 1.82542 16.1335 2.11133C16.4418 2.39724 16.6306 2.78912 16.6622 3.20841L16.6663 3.33341V16.6667C16.6665 17.0872 16.5077 17.4922 16.2218 17.8005C15.9359 18.1089 15.544 18.2977 15.1247 18.3292L14.9997 18.3334H4.99967C4.57919 18.3335 4.1742 18.1747 3.86588 17.8888C3.55757 17.6029 3.36871 17.211 3.33717 16.7917L3.33301 16.6667V3.33341C3.33287 2.91293 3.49168 2.50794 3.77759 2.19962C4.0635 1.89131 4.45538 1.70245 4.87467 1.67091L4.99967 1.66675H14.9997ZM9.16634 3.33341H4.99967V16.6667H9.16634V3.33341ZM14.9997 3.33341H10.833V16.6667H14.9997V3.33341ZM7.49967 9.16675C7.71207 9.16698 7.91637 9.24831 8.07081 9.39412C8.22526 9.53993 8.3182 9.73921 8.33065 9.95124C8.3431 10.1633 8.27411 10.3721 8.13779 10.5349C8.00146 10.6978 7.80809 10.8025 7.59717 10.8276L7.49967 10.8334H6.66634C6.45394 10.8332 6.24965 10.7518 6.0952 10.606C5.94075 10.4602 5.84781 10.261 5.83536 10.0489C5.82292 9.83688 5.8919 9.6281 6.02823 9.46522C6.16455 9.30234 6.35793 9.19767 6.56884 9.17258L6.66634 9.16675H7.49967ZM13.333 9.16675C13.554 9.16675 13.766 9.25455 13.9223 9.41083C14.0785 9.56711 14.1663 9.77907 14.1663 10.0001C14.1663 10.2211 14.0785 10.4331 13.9223 10.5893C13.766 10.7456 13.554 10.8334 13.333 10.8334H12.4997C12.2787 10.8334 12.0667 10.7456 11.9104 10.5893C11.7541 10.4331 11.6663 10.2211 11.6663 10.0001C11.6663 9.77907 11.7541 9.56711 11.9104 9.41083C12.0667 9.25455 12.2787 9.16675 12.4997 9.16675H13.333Z" fill="#89857E"/>
</g>
<defs>
<clipPath id="clip0_1134_5557">
<rect width="20" height="20" fill="white"/>
</clipPath>
</defs>
</svg>
