<svg width="20" height="20" viewBox="0 0 20 20" fill="none" xmlns="http://www.w3.org/2000/svg">
<g clip-path="url(#clip0_1134_5579)">
<path fill-rule="evenodd" clip-rule="evenodd" d="M16.7953 4.16675C17.6453 4.16675 18.3337 4.85591 18.3337 5.70508V7.50008C18.3336 9.05131 17.8528 10.5644 16.9574 11.8311C16.062 13.0978 14.796 14.0559 13.3337 14.5734V15.4167C13.3337 15.7483 13.202 16.0662 12.9675 16.3006C12.7331 16.5351 12.4152 16.6667 12.0837 16.6667H7.91699C7.58547 16.6667 7.26753 16.5351 7.03311 16.3006C6.79869 16.0662 6.66699 15.7483 6.66699 15.4167V14.5734C5.20464 14.0559 3.93864 13.0978 3.04323 11.8311C2.14781 10.5644 1.66701 9.05131 1.66699 7.50008V5.70508C1.66699 4.85508 2.35616 4.16675 3.20533 4.16675H16.7953ZM16.667 7.50008V5.83341H3.33366V7.50008C3.33366 9.04718 3.94824 10.5309 5.0422 11.6249C6.13616 12.7188 7.6199 13.3334 9.16699 13.3334H10.8337C12.3808 13.3334 13.8645 12.7188 14.9584 11.6249C16.0524 10.5309 16.667 9.04718 16.667 7.50008Z" fill="#89857E"/>
</g>
<defs>
<clipPath id="clip0_1134_5579">
<rect width="20" height="20" fill="white"/>
</clipPath>
</defs>
</svg>
