<svg width="20" height="20" viewBox="0 0 20 20" fill="none" xmlns="http://www.w3.org/2000/svg">
<g clip-path="url(#clip0_1134_5567)">
<path fill-rule="evenodd" clip-rule="evenodd" d="M7.5 3.33333C7.5 2.8731 7.8731 2.5 8.33333 2.5H11.6667C12.1269 2.5 12.5 2.8731 12.5 3.33333C12.5 3.79357 12.1269 4.16667 11.6667 4.16667H10.8333V5.02876C15.3667 5.43782 18.342 10.1389 16.6071 14.4762C16.4805 14.7925 16.1741 15 15.8333 15H4.16667C3.82592 15 3.51949 14.7925 3.39293 14.4762C1.65803 10.1389 4.63333 5.43782 9.16667 5.02876V4.16667H8.33333C7.8731 4.16667 7.5 3.79357 7.5 3.33333ZM9.80858 6.66667C6.28663 6.66667 3.82207 10.0441 4.7612 13.3333H15.2388C16.1779 10.0441 13.7133 6.66667 10.1914 6.66667H9.80858ZM2.5 16.6667C2.5 16.2064 2.8731 15.8333 3.33333 15.8333H16.6667C17.1269 15.8333 17.5 16.2064 17.5 16.6667C17.5 17.1269 17.1269 17.5 16.6667 17.5H3.33333C2.8731 17.5 2.5 17.1269 2.5 16.6667Z" fill="#89857E"/>
</g>
<defs>
<clipPath id="clip0_1134_5567">
<rect width="20" height="20" fill="white"/>
</clipPath>
</defs>
</svg>
