<svg width="20" height="20" viewBox="0 0 20 20" fill="none" xmlns="http://www.w3.org/2000/svg">
<path d="M15.833 1.66675C15.612 1.66675 15.4 1.75455 15.2438 1.91083C15.0875 2.06711 14.9997 2.27907 14.9997 2.50008V7.05008L14.1663 7.60841V2.50008C14.1663 2.27907 14.0785 2.06711 13.9223 1.91083C13.766 1.75455 13.554 1.66675 13.333 1.66675C13.112 1.66675 12.9 1.75455 12.7438 1.91083C12.5875 2.06711 12.4997 2.27907 12.4997 2.50008V7.60841L11.6663 7.05008V2.50008C11.6663 2.27907 11.5785 2.06711 11.4223 1.91083C11.266 1.75455 11.054 1.66675 10.833 1.66675C10.612 1.66675 10.4 1.75455 10.2438 1.91083C10.0875 2.06711 9.99967 2.27907 9.99967 2.50008V7.50008C10.0004 7.63734 10.035 7.77229 10.1004 7.89296C10.1658 8.01362 10.26 8.11626 10.3747 8.19175L12.4997 9.61675V17.5001C12.4997 17.7211 12.5875 17.9331 12.7438 18.0893C12.9 18.2456 13.112 18.3334 13.333 18.3334C13.554 18.3334 13.766 18.2456 13.9223 18.0893C14.0785 17.9331 14.1663 17.7211 14.1663 17.5001V9.61675L16.2913 8.19175C16.406 8.11626 16.5002 8.01362 16.5656 7.89296C16.631 7.77229 16.6656 7.63734 16.6663 7.50008V2.50008C16.6663 2.27907 16.5785 2.06711 16.4223 1.91083C16.266 1.75455 16.054 1.66675 15.833 1.66675ZM7.49967 1.66675C6.39461 1.66675 5.3348 2.10573 4.5534 2.88714C3.77199 3.66854 3.33301 4.72835 3.33301 5.83341V10.8334C3.33301 11.0544 3.42081 11.2664 3.57709 11.4227C3.73337 11.5789 3.94533 11.6667 4.16634 11.6667H6.66634V17.5001C6.66634 17.7211 6.75414 17.9331 6.91042 18.0893C7.0667 18.2456 7.27866 18.3334 7.49967 18.3334C7.72069 18.3334 7.93265 18.2456 8.08893 18.0893C8.24521 17.9331 8.33301 17.7211 8.33301 17.5001V2.50008C8.33301 2.27907 8.24521 2.06711 8.08893 1.91083C7.93265 1.75455 7.72069 1.66675 7.49967 1.66675ZM6.66634 10.0001H4.99967V5.83341C4.9994 5.3162 5.15955 4.81164 5.45805 4.38926C5.75656 3.96688 6.17871 3.64748 6.66634 3.47508V10.0001Z" fill="#89857E"/>
</svg>
