<svg width="20" height="20" viewBox="0 0 20 20" fill="none" xmlns="http://www.w3.org/2000/svg">
<path d="M13.7497 4.16671C13.016 4.16612 12.2959 4.36487 11.6663 4.74171C11.2099 3.69403 10.4083 2.83432 9.39512 2.30575C8.38192 1.77718 7.21822 1.61164 6.09781 1.83669C4.9774 2.06175 3.96789 2.66382 3.23739 3.54265C2.50689 4.42148 2.09948 5.52403 2.08301 6.66671V10C2.0842 11.1808 2.50321 12.323 3.26583 13.2244C4.02844 14.1258 5.08546 14.7283 6.24967 14.925V17.5C6.24967 17.7211 6.33747 17.933 6.49375 18.0893C6.65003 18.2456 6.86199 18.3334 7.08301 18.3334C7.30402 18.3334 7.51598 18.2456 7.67226 18.0893C7.82854 17.933 7.91634 17.7211 7.91634 17.5V14.925C8.76528 14.7777 9.56263 14.4163 10.233 13.875C10.5305 14.3525 10.9217 14.7648 11.3828 15.0871C11.844 15.4093 12.3657 15.6349 12.9163 15.75V17.5C12.9163 17.7211 13.0041 17.933 13.1604 18.0893C13.3167 18.2456 13.5287 18.3334 13.7497 18.3334C13.9707 18.3334 14.1827 18.2456 14.3389 18.0893C14.4952 17.933 14.583 17.7211 14.583 17.5V15.75C15.5241 15.5579 16.37 15.0466 16.9774 14.3025C17.5849 13.5584 17.9165 12.6272 17.9163 11.6667V8.33337C17.9163 7.2283 17.4774 6.1685 16.696 5.38709C15.9146 4.60569 14.8547 4.16671 13.7497 4.16671ZM9.58301 8.33337V11.6667C9.59098 11.8258 9.60767 11.9844 9.63301 12.1417C9.18733 12.6725 8.58728 13.0512 7.91634 13.225V10.8334C7.91634 10.6124 7.82854 10.4004 7.67226 10.2441C7.51598 10.0878 7.30402 10 7.08301 10C6.86199 10 6.65003 10.0878 6.49375 10.2441C6.33747 10.4004 6.24967 10.6124 6.24967 10.8334V13.2167C5.53595 13.0324 4.90343 12.6168 4.45108 12.0347C3.99873 11.4527 3.75207 10.7372 3.74967 10V6.66671C3.7475 6.00634 3.94152 5.36022 4.30712 4.81029C4.67272 4.26036 5.19343 3.83142 5.80318 3.57788C6.41293 3.32433 7.08425 3.25762 7.73198 3.38619C8.37971 3.51476 8.97466 3.83283 9.44134 4.30004C9.89247 4.75724 10.1996 5.33671 10.3247 5.96671C9.84295 6.66202 9.58427 7.48749 9.58301 8.33337ZM16.2497 11.6667C16.2482 12.1825 16.0873 12.6852 15.7889 13.1059C15.4905 13.5266 15.0693 13.8448 14.583 14.0167V10.8334C14.583 10.6124 14.4952 10.4004 14.3389 10.2441C14.1827 10.0878 13.9707 10 13.7497 10C13.5287 10 13.3167 10.0878 13.1604 10.2441C13.0041 10.4004 12.9163 10.6124 12.9163 10.8334V14.0167C12.43 13.8448 12.0088 13.5266 11.7105 13.1059C11.4121 12.6852 11.2511 12.1825 11.2497 11.6667V8.33337C11.2497 7.67033 11.5131 7.03445 11.9819 6.56561C12.4507 6.09676 13.0866 5.83337 13.7497 5.83337C14.4127 5.83337 15.0486 6.09676 15.5174 6.56561C15.9863 7.03445 16.2497 7.67033 16.2497 8.33337V11.6667Z" fill="#89857E"/>
</svg>
