<svg width="20" height="20" viewBox="0 0 20 20" fill="none" xmlns="http://www.w3.org/2000/svg">
<path d="M2.91634 7.5C3.08116 7.5 3.24228 7.45113 3.37932 7.35956C3.51636 7.26799 3.62317 7.13784 3.68624 6.98557C3.74931 6.8333 3.76582 6.66574 3.73366 6.50409C3.70151 6.34244 3.62214 6.19395 3.5056 6.07741C3.38905 5.96087 3.24057 5.8815 3.07892 5.84935C2.91727 5.81719 2.74971 5.83369 2.59744 5.89677C2.44517 5.95984 2.31502 6.06665 2.22345 6.20369C2.13188 6.34073 2.08301 6.50185 2.08301 6.66667C2.08301 6.88768 2.17081 7.09964 2.32709 7.25592C2.48337 7.4122 2.69533 7.5 2.91634 7.5ZM6.24967 7.5H12.083C12.746 7.5 13.3819 7.23661 13.8508 6.76777C14.3196 6.29893 14.583 5.66304 14.583 5C14.583 4.33696 14.3196 3.70107 13.8508 3.23223C13.3819 2.76339 12.746 2.5 12.083 2.5C11.6446 2.50181 11.2141 2.61662 10.833 2.83333C10.7375 2.88778 10.6537 2.96057 10.5865 3.04753C10.5193 3.13448 10.4699 3.23388 10.4412 3.34C10.4126 3.44611 10.4052 3.55685 10.4195 3.66583C10.4338 3.77482 10.4696 3.87989 10.5247 3.975C10.5798 4.06979 10.6531 4.15277 10.7404 4.21918C10.8277 4.28559 10.9272 4.33412 11.0332 4.36199C11.1393 4.38986 11.2498 4.39652 11.3585 4.3816C11.4671 4.36667 11.5717 4.33044 11.6663 4.275C11.7945 4.20602 11.9374 4.16887 12.083 4.16667C12.304 4.16667 12.516 4.25446 12.6723 4.41074C12.8285 4.56702 12.9163 4.77899 12.9163 5C12.9163 5.22101 12.8285 5.43298 12.6723 5.58926C12.516 5.74554 12.304 5.83333 12.083 5.83333H6.24967C6.02866 5.83333 5.8167 5.92113 5.66042 6.07741C5.50414 6.23369 5.41634 6.44565 5.41634 6.66667C5.41634 6.88768 5.50414 7.09964 5.66042 7.25592C5.8167 7.4122 6.02866 7.5 6.24967 7.5ZM2.91634 10.8333H8.74967C8.97069 10.8333 9.18265 10.7455 9.33893 10.5893C9.49521 10.433 9.58301 10.221 9.58301 10C9.58301 9.77899 9.49521 9.56702 9.33893 9.41074C9.18265 9.25446 8.97069 9.16667 8.74967 9.16667H2.91634C2.69533 9.16667 2.48337 9.25446 2.32709 9.41074C2.17081 9.56702 2.08301 9.77899 2.08301 10C2.08301 10.221 2.17081 10.433 2.32709 10.5893C2.48337 10.7455 2.69533 10.8333 2.91634 10.8333ZM17.083 7.5C17.2478 7.5 17.4089 7.45113 17.546 7.35956C17.683 7.26799 17.7898 7.13784 17.8529 6.98557C17.916 6.8333 17.9325 6.66574 17.9003 6.50409C17.8682 6.34244 17.7888 6.19395 17.6723 6.07741C17.5557 5.96087 17.4072 5.8815 17.2456 5.84935C17.0839 5.81719 16.9164 5.83369 16.7641 5.89677C16.6118 5.95984 16.4817 6.06665 16.3901 6.20369C16.2985 6.34073 16.2497 6.50185 16.2497 6.66667C16.2497 6.88768 16.3375 7.09964 16.4938 7.25592C16.65 7.4122 16.862 7.5 17.083 7.5ZM15.4163 9.16667H12.083C11.862 9.16667 11.65 9.25446 11.4938 9.41074C11.3375 9.56702 11.2497 9.77899 11.2497 10C11.2497 10.221 11.3375 10.433 11.4938 10.5893C11.65 10.7455 11.862 10.8333 12.083 10.8333H15.4163C15.6374 10.8333 15.8493 10.9211 16.0056 11.0774C16.1619 11.2337 16.2497 11.4457 16.2497 11.6667C16.2497 11.8877 16.1619 12.0996 16.0056 12.2559C15.8493 12.4122 15.6374 12.5 15.4163 12.5C15.1953 12.5 14.9834 12.5878 14.8271 12.7441C14.6708 12.9004 14.583 13.1123 14.583 13.3333C14.583 13.5543 14.6708 13.7663 14.8271 13.9226C14.9834 14.0789 15.1953 14.1667 15.4163 14.1667C16.0794 14.1667 16.7153 13.9033 17.1841 13.4344C17.6529 12.9656 17.9163 12.3297 17.9163 11.6667C17.9163 11.0036 17.6529 10.3677 17.1841 9.8989C16.7153 9.43006 16.0794 9.16667 15.4163 9.16667ZM10.4163 12.5H7.08301C6.86199 12.5 6.65003 12.5878 6.49375 12.7441C6.33747 12.9004 6.24967 13.1123 6.24967 13.3333C6.24967 13.5543 6.33747 13.7663 6.49375 13.9226C6.65003 14.0789 6.86199 14.1667 7.08301 14.1667H10.4163C10.6374 14.1667 10.8493 14.2545 11.0056 14.4107C11.1619 14.567 11.2497 14.779 11.2497 15C11.2497 15.221 11.1619 15.433 11.0056 15.5893C10.8493 15.7455 10.6374 15.8333 10.4163 15.8333C10.2708 15.8311 10.1279 15.794 9.99967 15.725C9.90483 15.6647 9.79876 15.6242 9.68786 15.606C9.57696 15.5877 9.46352 15.5921 9.35435 15.6189C9.24519 15.6456 9.14256 15.6941 9.05265 15.7616C8.96273 15.829 8.88738 15.9139 8.83114 16.0112C8.77489 16.1085 8.73891 16.2162 8.72536 16.3278C8.71181 16.4393 8.72096 16.5525 8.75228 16.6604C8.78359 16.7684 8.83642 16.8689 8.90758 16.9559C8.97873 17.0429 9.06675 17.1146 9.16634 17.1667C9.54743 17.3834 9.97795 17.4982 10.4163 17.5C11.0794 17.5 11.7153 17.2366 12.1841 16.7678C12.6529 16.2989 12.9163 15.663 12.9163 15C12.9163 14.337 12.6529 13.7011 12.1841 13.2322C11.7153 12.7634 11.0794 12.5 10.4163 12.5ZM3.74967 12.5H2.91634C2.69533 12.5 2.48337 12.5878 2.32709 12.7441C2.17081 12.9004 2.08301 13.1123 2.08301 13.3333C2.08301 13.5543 2.17081 13.7663 2.32709 13.9226C2.48337 14.0789 2.69533 14.1667 2.91634 14.1667H3.74967C3.97069 14.1667 4.18265 14.0789 4.33893 13.9226C4.49521 13.7663 4.58301 13.5543 4.58301 13.3333C4.58301 13.1123 4.49521 12.9004 4.33893 12.7441C4.18265 12.5878 3.97069 12.5 3.74967 12.5Z" fill="#89857E"/>
</svg>
