<svg width="20" height="20" viewBox="0 0 20 20" fill="none" xmlns="http://www.w3.org/2000/svg">
<g clip-path="url(#clip0_1134_5561)">
<path fill-rule="evenodd" clip-rule="evenodd" d="M8.74958 6.25005C8.74963 6.02408 8.81094 5.80236 8.92697 5.60846C9.04301 5.41456 9.20943 5.25574 9.40854 5.1489C9.60765 5.04206 9.832 4.99119 10.0577 5.0017C10.2834 5.01221 10.5021 5.08371 10.6904 5.20859C10.8787 5.33348 11.0297 5.50707 11.1272 5.71091C11.2247 5.91476 11.2651 6.14122 11.2442 6.36621C11.2233 6.5912 11.1417 6.80631 11.0082 6.98865C10.8748 7.17099 10.6944 7.31374 10.4862 7.40171C10.0329 7.59338 9.41875 8.02421 9.22625 8.71838L9.21791 8.72421L2.07291 14.4409C1.15041 15.1792 1.67291 16.6667 2.85375 16.6667H17.1454C18.3271 16.6667 18.8487 15.1792 17.9262 14.4409L11.0787 8.96338C11.0971 8.95421 11.1162 8.94505 11.1362 8.93671C11.6218 8.73126 12.0425 8.39804 12.3538 7.97251C12.665 7.54697 12.8551 7.04504 12.9038 6.52009C12.9525 5.99514 12.858 5.4668 12.6303 4.99127C12.4027 4.51575 12.0504 4.11081 11.611 3.81954C11.1716 3.52827 10.6614 3.36155 10.1347 3.33712C9.6081 3.31269 9.08469 3.43146 8.62017 3.68079C8.15565 3.93013 7.7674 4.30071 7.49672 4.75312C7.22603 5.20552 7.08302 5.72284 7.08291 6.25005C7.08291 6.47106 7.17071 6.68302 7.32699 6.8393C7.48327 6.99558 7.69523 7.08338 7.91625 7.08338C8.13726 7.08338 8.34922 6.99558 8.5055 6.8393C8.66178 6.68302 8.74958 6.47106 8.74958 6.25005ZM9.99958 10.2334L15.9579 15H4.04125L9.99958 10.2334Z" fill="#89857E"/>
</g>
<defs>
<clipPath id="clip0_1134_5561">
<rect width="20" height="20" fill="white"/>
</clipPath>
</defs>
</svg>
