<svg width="20" height="20" viewBox="0 0 20 20" fill="none" xmlns="http://www.w3.org/2000/svg">
<path d="M16.25 3.54175H3.75C2.71667 3.54175 1.875 4.38258 1.875 5.41675V6.25008C1.875 7.28425 2.71667 8.12508 3.75 8.12508H9.375V15.2084H6.66667C6.32167 15.2084 6.04167 15.4884 6.04167 15.8334C6.04167 16.1784 6.32167 16.4584 6.66667 16.4584H13.3333C13.6783 16.4584 13.9583 16.1784 13.9583 15.8334C13.9583 15.4884 13.6783 15.2084 13.3333 15.2084H10.625V8.12508H16.25C17.2833 8.12508 18.125 7.28425 18.125 6.25008V5.41675C18.125 4.38258 17.2833 3.54175 16.25 3.54175ZM16.875 6.25008C16.875 6.59508 16.5942 6.87508 16.25 6.87508H3.75C3.40583 6.87508 3.125 6.59508 3.125 6.25008V5.41675C3.125 5.07175 3.40583 4.79175 3.75 4.79175H16.25C16.5942 4.79175 16.875 5.07175 16.875 5.41675V6.25008Z" fill="#89857E"/>
</svg>
