<svg width="20" height="20" viewBox="0 0 20 20" fill="none" xmlns="http://www.w3.org/2000/svg">
<path d="M16.6663 2.91675H3.33301C2.66997 2.91675 2.03408 3.18014 1.56524 3.64898C1.0964 4.11782 0.833008 4.75371 0.833008 5.41675V16.2501C0.833008 16.4711 0.920805 16.6831 1.07709 16.8393C1.23337 16.9956 1.44533 17.0834 1.66634 17.0834H4.99967C5.13693 17.0827 5.27189 17.0481 5.39255 16.9827C5.51321 16.9173 5.61585 16.823 5.69134 16.7084L7.11634 14.5834H12.883L14.308 16.7084C14.3835 16.823 14.4861 16.9173 14.6068 16.9827C14.7275 17.0481 14.8624 17.0827 14.9997 17.0834H18.333C18.554 17.0834 18.766 16.9956 18.9223 16.8393C19.0785 16.6831 19.1663 16.4711 19.1663 16.2501V5.41675C19.1663 4.75371 18.903 4.11782 18.4341 3.64898C17.9653 3.18014 17.3294 2.91675 16.6663 2.91675ZM17.4997 15.4167H15.4497L14.0247 13.3334C13.9541 13.211 13.8537 13.1086 13.7327 13.0357C13.6117 12.9628 13.4742 12.9219 13.333 12.9167H6.66634C6.52909 12.9175 6.39413 12.9521 6.27347 13.0175C6.1528 13.0829 6.05016 13.1771 5.97467 13.2917L4.54967 15.4167H2.49967V11.2501H17.4997V15.4167ZM5.83301 9.58342V8.75008C5.83301 8.52907 5.92081 8.31711 6.07709 8.16083C6.23337 8.00455 6.44533 7.91675 6.66634 7.91675H8.33301C8.55402 7.91675 8.76598 8.00455 8.92226 8.16083C9.07854 8.31711 9.16634 8.52907 9.16634 8.75008V9.58342H5.83301ZM10.833 9.58342V8.75008C10.833 8.52907 10.9208 8.31711 11.0771 8.16083C11.2334 8.00455 11.4453 7.91675 11.6663 7.91675H13.333C13.554 7.91675 13.766 8.00455 13.9223 8.16083C14.0785 8.31711 14.1663 8.52907 14.1663 8.75008V9.58342H10.833ZM17.4997 9.58342H15.833V8.75008C15.833 8.08704 15.5696 7.45116 15.1008 6.98231C14.6319 6.51347 13.996 6.25008 13.333 6.25008H11.6663C11.0496 6.25376 10.456 6.48526 9.99967 6.90008C9.54331 6.48526 8.94972 6.25376 8.33301 6.25008H6.66634C6.0033 6.25008 5.36742 6.51347 4.89857 6.98231C4.42973 7.45116 4.16634 8.08704 4.16634 8.75008V9.58342H2.49967V5.41675C2.49967 5.19573 2.58747 4.98377 2.74375 4.82749C2.90003 4.67121 3.11199 4.58341 3.33301 4.58341H16.6663C16.8874 4.58341 17.0993 4.67121 17.2556 4.82749C17.4119 4.98377 17.4997 5.19573 17.4997 5.41675V9.58342Z" fill="#89857E"/>
</svg>
