<svg width="20" height="20" viewBox="0 0 20 20" fill="none" xmlns="http://www.w3.org/2000/svg">
<path d="M12.9417 11.7751C12.8642 11.6969 12.772 11.6349 12.6705 11.5926C12.5689 11.5503 12.46 11.5286 12.35 11.5286C12.24 11.5286 12.1311 11.5503 12.0295 11.5926C11.928 11.6349 11.8358 11.6969 11.7583 11.7751C11.6031 11.9312 11.516 12.1424 11.516 12.3626C11.516 12.5827 11.6031 12.7939 11.7583 12.9501L16.9083 18.1C16.9858 18.1782 17.078 18.2402 17.1795 18.2825C17.2811 18.3248 17.39 18.3465 17.5 18.3465C17.61 18.3465 17.7189 18.3248 17.8205 18.2825C17.922 18.2402 18.0142 18.1782 18.0917 18.1C18.2469 17.9439 18.334 17.7327 18.334 17.5126C18.334 17.2924 18.2469 17.0812 18.0917 16.9251L12.9417 11.7751ZM13.9667 9.70005C14.6295 9.69947 15.2649 9.43569 15.7333 8.96672L18.0917 6.60838C18.2469 6.45225 18.334 6.24104 18.334 6.02088C18.334 5.80073 18.2469 5.58952 18.0917 5.43338C18.0142 5.35528 17.922 5.29328 17.8205 5.25097C17.7189 5.20867 17.61 5.18689 17.5 5.18689C17.39 5.18689 17.2811 5.20867 17.1795 5.25097C17.078 5.29328 16.9858 5.35528 16.9083 5.43338L14.55 7.79172C14.3939 7.94693 14.1826 8.03405 13.9625 8.03405C13.7423 8.03405 13.5311 7.94693 13.375 7.79172L16.325 4.84172C16.4802 4.68558 16.5673 4.47437 16.5673 4.25422C16.5673 4.03406 16.4802 3.82285 16.325 3.66672C16.2475 3.58861 16.1554 3.52662 16.0538 3.48431C15.9523 3.442 15.8433 3.42022 15.7333 3.42022C15.6233 3.42022 15.5144 3.442 15.4128 3.48431C15.3113 3.52662 15.2191 3.58861 15.1417 3.66672L12.2 6.60838C12.0448 6.45225 11.9577 6.24104 11.9577 6.02088C11.9577 5.80073 12.0448 5.58952 12.2 5.43338L14.55 3.07505C14.6372 3.00035 14.7081 2.90841 14.7581 2.80503C14.8081 2.70164 14.8362 2.58903 14.8407 2.47426C14.8451 2.3595 14.8258 2.24505 14.7839 2.13812C14.742 2.03118 14.6784 1.93405 14.5972 1.85284C14.516 1.77163 14.4189 1.70808 14.3119 1.66619C14.205 1.62429 14.0905 1.60495 13.9758 1.60939C13.861 1.61382 13.7484 1.64193 13.645 1.69195C13.5416 1.74197 13.4497 1.81282 13.375 1.90005L11.0167 4.25838C10.5485 4.72714 10.2855 5.36255 10.2855 6.02505C10.2855 6.68755 10.5485 7.32297 11.0167 7.79172L10 8.82505L8.69999 7.54172C9.06895 6.87585 9.20848 6.10705 9.09702 5.35399C8.98557 4.60094 8.62934 3.9055 8.08333 3.37505C6.88333 2.17505 3.775 0.833384 2.30833 2.32505C0.841662 3.81672 2.16666 6.89172 3.33333 8.10005C3.98485 8.75391 4.86082 9.13528 5.78333 9.16672H5.89999C6.46343 9.1587 7.01499 9.00358 7.49999 8.71672L8.80833 10.0001L1.90833 16.9001C1.83118 16.9777 1.77008 17.0699 1.72854 17.1712C1.687 17.2725 1.66581 17.381 1.6662 17.4905C1.66659 17.6 1.68854 17.7083 1.73079 17.8094C1.77305 17.9104 1.8348 18.0021 1.9125 18.0792C1.99019 18.1564 2.08233 18.2175 2.18364 18.259C2.28495 18.3006 2.39345 18.3217 2.50294 18.3213C2.61244 18.321 2.72078 18.299 2.8218 18.2568C2.92281 18.2145 3.01451 18.1528 3.09166 18.0751L10.5917 10.5751L12.1917 8.97505C12.4253 9.20675 12.7023 9.39007 13.0069 9.51448C13.3115 9.63889 13.6376 9.70195 13.9667 9.70005ZM7.025 7.03338C6.86888 7.18858 6.68256 7.31008 6.47758 7.39035C6.2726 7.47062 6.05332 7.50796 5.83333 7.50005C5.34617 7.47907 4.88613 7.26996 4.54999 6.91672C3.64999 6.01672 3.01666 3.97505 3.49166 3.50005C3.64943 3.38104 3.84437 3.32197 4.04166 3.33338C5.10524 3.41816 6.11194 3.84834 6.90833 4.55838C7.24856 4.87315 7.45146 5.30902 7.47328 5.772C7.49511 6.23499 7.33411 6.68801 7.025 7.03338Z" fill="#89857E"/>
</svg>
