<svg width="20" height="20" viewBox="0 0 20 20" fill="none" xmlns="http://www.w3.org/2000/svg">
<g clip-path="url(#clip0_1134_5575)">
<path fill-rule="evenodd" clip-rule="evenodd" d="M16.7953 4.16663C17.6453 4.16663 18.3337 4.85579 18.3337 5.70496V7.49996C18.3336 9.05119 17.8528 10.5643 16.9574 11.831C16.062 13.0977 14.796 14.0558 13.3337 14.5733V15.4166C13.3337 15.7481 13.202 16.0661 12.9675 16.3005C12.7331 16.5349 12.4152 16.6666 12.0837 16.6666H7.91699C7.58547 16.6666 7.26753 16.5349 7.03311 16.3005C6.79869 16.0661 6.66699 15.7481 6.66699 15.4166V14.5733C5.20464 14.0558 3.93864 13.0977 3.04323 11.831C2.14781 10.5643 1.66701 9.05119 1.66699 7.49996V5.70496C1.66699 4.85496 2.35616 4.16663 3.20533 4.16663H16.7953ZM16.667 7.49996V5.83329H3.33366V7.49996C3.33366 9.04706 3.94824 10.5308 5.0422 11.6247C6.13616 12.7187 7.6199 13.3333 9.16699 13.3333H10.8337C12.3808 13.3333 13.8645 12.7187 14.9584 11.6247C16.0524 10.5308 16.667 9.04706 16.667 7.49996Z" fill="#89857E"/>
</g>
<defs>
<clipPath id="clip0_1134_5575">
<rect width="20" height="20" fill="white"/>
</clipPath>
</defs>
</svg>
