<svg width="20" height="20" viewBox="0 0 20 20" fill="none" xmlns="http://www.w3.org/2000/svg">
<path d="M12.9417 11.7749C12.8642 11.6968 12.772 11.6348 12.6705 11.5925C12.5689 11.5502 12.46 11.5284 12.35 11.5284C12.24 11.5284 12.1311 11.5502 12.0295 11.5925C11.928 11.6348 11.8358 11.6968 11.7583 11.7749C11.6031 11.9311 11.516 12.1423 11.516 12.3624C11.516 12.5826 11.6031 12.7938 11.7583 12.9499L16.9083 18.0999C16.9858 18.178 17.078 18.24 17.1795 18.2823C17.2811 18.3246 17.39 18.3464 17.5 18.3464C17.61 18.3464 17.7189 18.3246 17.8205 18.2823C17.922 18.24 18.0142 18.178 18.0917 18.0999C18.2469 17.9438 18.334 17.7326 18.334 17.5124C18.334 17.2923 18.2469 17.0811 18.0917 16.9249L12.9417 11.7749ZM13.9667 9.69993C14.6295 9.69935 15.2649 9.43557 15.7333 8.9666L18.0917 6.60826C18.2469 6.45213 18.334 6.24092 18.334 6.02076C18.334 5.80061 18.2469 5.5894 18.0917 5.43326C18.0142 5.35516 17.922 5.29316 17.8205 5.25085C17.7189 5.20855 17.61 5.18676 17.5 5.18676C17.39 5.18676 17.2811 5.20855 17.1795 5.25085C17.078 5.29316 16.9858 5.35516 16.9083 5.43326L14.55 7.7916C14.3939 7.94681 14.1826 8.03392 13.9625 8.03392C13.7423 8.03392 13.5311 7.94681 13.375 7.7916L16.325 4.8416C16.4802 4.68546 16.5673 4.47425 16.5673 4.2541C16.5673 4.03394 16.4802 3.82273 16.325 3.6666C16.2475 3.58849 16.1554 3.52649 16.0538 3.48419C15.9523 3.44188 15.8433 3.4201 15.7333 3.4201C15.6233 3.4201 15.5144 3.44188 15.4128 3.48419C15.3113 3.52649 15.2191 3.58849 15.1417 3.6666L12.2 6.60826C12.0448 6.45213 11.9577 6.24092 11.9577 6.02076C11.9577 5.80061 12.0448 5.5894 12.2 5.43326L14.55 3.07493C14.6372 3.00022 14.7081 2.90829 14.7581 2.8049C14.8081 2.70152 14.8362 2.58891 14.8407 2.47414C14.8451 2.35937 14.8258 2.24493 14.7839 2.13799C14.742 2.03106 14.6784 1.93393 14.5972 1.85272C14.516 1.77151 14.4189 1.70796 14.3119 1.66606C14.205 1.62417 14.0905 1.60483 13.9758 1.60926C13.861 1.6137 13.7484 1.6418 13.645 1.69182C13.5416 1.74184 13.4497 1.81269 13.375 1.89993L11.0167 4.25826C10.5485 4.72701 10.2855 5.36243 10.2855 6.02493C10.2855 6.68743 10.5485 7.32284 11.0167 7.7916L10 8.82493L8.69999 7.5416C9.06895 6.87573 9.20848 6.10692 9.09702 5.35387C8.98557 4.60081 8.62934 3.90538 8.08333 3.37493C6.88333 2.17493 3.775 0.833262 2.30833 2.32493C0.841662 3.8166 2.16666 6.8916 3.33333 8.09993C3.98485 8.75379 4.86082 9.13516 5.78333 9.1666H5.89999C6.46343 9.15858 7.01499 9.00345 7.49999 8.7166L8.80833 9.99993L1.90833 16.8999C1.83118 16.9776 1.77008 17.0698 1.72854 17.1711C1.687 17.2724 1.66581 17.3809 1.6662 17.4904C1.66659 17.5999 1.68854 17.7082 1.73079 17.8092C1.77305 17.9102 1.8348 18.0019 1.9125 18.0791C1.99019 18.1562 2.08233 18.2173 2.18364 18.2589C2.28495 18.3004 2.39345 18.3216 2.50294 18.3212C2.61244 18.3208 2.72078 18.2989 2.8218 18.2566C2.92281 18.2144 3.01451 18.1526 3.09166 18.0749L10.5917 10.5749L12.1917 8.97493C12.4253 9.20663 12.7023 9.38995 13.0069 9.51436C13.3115 9.63877 13.6376 9.70183 13.9667 9.69993ZM7.025 7.03326C6.86888 7.18846 6.68256 7.30996 6.47758 7.39023C6.2726 7.4705 6.05332 7.50784 5.83333 7.49993C5.34617 7.47895 4.88613 7.26984 4.54999 6.9166C3.64999 6.0166 3.01666 3.97493 3.49166 3.49993C3.64943 3.38091 3.84437 3.32184 4.04166 3.33326C5.10524 3.41803 6.11194 3.84822 6.90833 4.55826C7.24856 4.87303 7.45146 5.30889 7.47328 5.77188C7.49511 6.23487 7.33411 6.68789 7.025 7.03326Z" fill="#89857E"/>
</svg>
