<svg width="20" height="20" viewBox="0 0 20 20" fill="none" xmlns="http://www.w3.org/2000/svg">
<path d="M18.1503 3.01675C18.2471 2.89479 18.3077 2.74819 18.3254 2.59354C18.343 2.43889 18.3171 2.28238 18.2503 2.14175C18.1828 1.99994 18.0766 1.8801 17.9439 1.79606C17.8112 1.71202 17.6574 1.66719 17.5003 1.66675H2.50034C2.34327 1.66719 2.18952 1.71202 2.05683 1.79606C1.92413 1.8801 1.81788 1.99994 1.75034 2.14175C1.68363 2.28238 1.65764 2.43889 1.67531 2.59354C1.69299 2.74819 1.75362 2.89479 1.85034 3.01675L9.16701 12.1667V16.6667H4.37534C4.15433 16.6667 3.94237 16.7545 3.78609 16.9108C3.62981 17.0671 3.54201 17.2791 3.54201 17.5001C3.54201 17.7211 3.62981 17.9331 3.78609 18.0893C3.94237 18.2456 4.15433 18.3334 4.37534 18.3334H15.6253C15.8464 18.3334 16.0583 18.2456 16.2146 18.0893C16.3709 17.9331 16.4587 17.7211 16.4587 17.5001C16.4587 17.2791 16.3709 17.0671 16.2146 16.9108C16.0583 16.7545 15.8464 16.6667 15.6253 16.6667H10.8337V12.1667L18.1503 3.01675ZM4.23368 3.33341H15.767L13.767 5.83341H6.26701L4.23368 3.33341ZM10.0003 10.5417L7.56701 7.50008H12.4337L10.0003 10.5417Z" fill="#89857E"/>
</svg>
