<svg width="20" height="20" viewBox="0 0 20 20" fill="none" xmlns="http://www.w3.org/2000/svg">
<path d="M11.967 11.8584C11.4099 12.3076 10.7159 12.5525 10.0003 12.5525C9.28475 12.5525 8.59073 12.3076 8.03366 11.8584C7.86348 11.717 7.64408 11.6489 7.42373 11.6692C7.20337 11.6895 7.00011 11.7966 6.85866 11.9667C6.71721 12.1369 6.64916 12.3563 6.66948 12.5767C6.6898 12.797 6.79681 13.0003 6.967 13.1417C7.81811 13.8523 8.89163 14.2414 10.0003 14.2414C11.109 14.2414 12.1825 13.8523 13.0337 13.1417C13.2038 13.0003 13.3109 12.797 13.3312 12.5767C13.3515 12.3563 13.2834 12.1369 13.142 11.9667C13.072 11.8825 12.986 11.8128 12.8891 11.7618C12.7921 11.7107 12.686 11.6793 12.5769 11.6692C12.3566 11.6489 12.1372 11.717 11.967 11.8584ZM7.67533 8.78341C7.83146 8.93862 8.04267 9.02574 8.26283 9.02574C8.48298 9.02574 8.69419 8.93862 8.85033 8.78341C9.00554 8.62728 9.09266 8.41607 9.09266 8.19592C9.09266 7.97576 9.00554 7.76455 8.85033 7.60842C8.37343 7.15591 7.74108 6.90365 7.08366 6.90365C6.42625 6.90365 5.79389 7.15591 5.317 7.60842C5.22976 7.68312 5.15891 7.77505 5.10889 7.87844C5.05887 7.98183 5.03076 8.09444 5.02633 8.2092C5.0219 8.32397 5.04124 8.43841 5.08313 8.54535C5.12503 8.65229 5.18857 8.74941 5.26979 8.83062C5.351 8.91184 5.44812 8.97538 5.55506 9.01728C5.662 9.05918 5.77644 9.07851 5.89121 9.07408C6.00597 9.06965 6.11858 9.04154 6.22197 8.99152C6.32536 8.9415 6.41729 8.87065 6.492 8.78341C6.56946 8.70531 6.66163 8.64331 6.76318 8.60101C6.86473 8.5587 6.97365 8.53692 7.08366 8.53692C7.19367 8.53692 7.30259 8.5587 7.40414 8.60101C7.50569 8.64331 7.59786 8.70531 7.67533 8.78341ZM14.6837 7.60842C14.2068 7.15591 13.5744 6.90365 12.917 6.90365C12.2596 6.90365 11.6272 7.15591 11.1503 7.60842C11.0138 7.76783 10.9425 7.9729 10.9506 8.18263C10.9587 8.39236 11.0456 8.59131 11.194 8.73972C11.3424 8.88813 11.5414 8.97507 11.7511 8.98317C11.9608 8.99128 12.1659 8.91994 12.3253 8.78341C12.4028 8.70531 12.495 8.64331 12.5965 8.60101C12.6981 8.5587 12.807 8.53692 12.917 8.53692C13.027 8.53692 13.1359 8.5587 13.2375 8.60101C13.339 8.64331 13.4312 8.70531 13.5087 8.78341C13.6648 8.93862 13.876 9.02574 14.0962 9.02574C14.3163 9.02574 14.5275 8.93862 14.6837 8.78341C14.8389 8.62728 14.926 8.41607 14.926 8.19592C14.926 7.97576 14.8389 7.76455 14.6837 7.60842ZM10.0003 1.66675C8.35215 1.66675 6.74099 2.15549 5.37058 3.07117C4.00017 3.98685 2.93206 5.28834 2.30133 6.81105C1.6706 8.33377 1.50558 10.0093 1.82712 11.6258C2.14866 13.2423 2.94234 14.7272 4.10777 15.8926C5.27321 17.0581 6.75807 17.8517 8.37458 18.1733C9.99109 18.4948 11.6666 18.3298 13.1894 17.6991C14.7121 17.0683 16.0136 16.0002 16.9292 14.6298C17.8449 13.2594 18.3337 11.6483 18.3337 10.0001C18.3337 8.90573 18.1181 7.8221 17.6993 6.81105C17.2805 5.80001 16.6667 4.88135 15.8929 4.10752C15.1191 3.3337 14.2004 2.71987 13.1894 2.30109C12.1783 1.8823 11.0947 1.66675 10.0003 1.66675ZM10.0003 16.6667C8.68179 16.6667 7.39286 16.2758 6.29653 15.5432C5.2002 14.8107 4.34572 13.7695 3.84113 12.5513C3.33655 11.3331 3.20453 9.99269 3.46176 8.69948C3.719 7.40627 4.35393 6.21839 5.28628 5.28604C6.21863 4.35369 7.40652 3.71875 8.69973 3.46151C9.99293 3.20428 11.3334 3.3363 12.5516 3.84088C13.7697 4.34547 14.8109 5.19995 15.5435 6.29628C16.276 7.39261 16.667 8.68154 16.667 10.0001C16.667 11.7682 15.9646 13.4639 14.7144 14.7141C13.4641 15.9644 11.7684 16.6667 10.0003 16.6667Z" fill="#89857E"/>
</svg>
