<svg width="20" height="20" viewBox="0 0 20 20" fill="none" xmlns="http://www.w3.org/2000/svg">
<g clip-path="url(#clip0_1133_5545)">
<path d="M15.8333 2.5C16.7538 2.5 17.5 3.24619 17.5 4.16667V14.1667C17.5 15.0872 16.7538 15.8333 15.8333 15.8333H14.6817L14.912 16.294C15.1178 16.7057 14.951 17.2062 14.5393 17.412C14.1277 17.6178 13.6272 17.451 13.4213 17.0393L12.8183 15.8333H7.18169L6.57869 17.0393C6.37287 17.451 5.8723 17.6178 5.46066 17.412C5.04901 17.2062 4.88215 16.7057 5.08797 16.294L5.31831 15.8333H4.16667C3.24619 15.8333 2.5 15.0872 2.5 14.1667V4.16667C2.5 3.24619 3.24619 2.5 4.16667 2.5H15.8333ZM15.8333 7.5H10.8333V14.1667H15.8333V7.5ZM9.16667 7.5H4.16667V14.1667H9.16667V7.5ZM12.5 9.16667C12.9274 9.16667 13.2796 9.48836 13.3277 9.90281L13.3333 10V11.6667C13.3333 12.1269 12.9602 12.5 12.5 12.5C12.0726 12.5 11.7204 12.1783 11.6723 11.7639L11.6667 11.6667V10C11.6667 9.53975 12.0398 9.16667 12.5 9.16667ZM7.5 9.16667C7.96023 9.16667 8.33333 9.53975 8.33333 10V11.6667C8.33333 12.1269 7.96023 12.5 7.5 12.5C7.03977 12.5 6.66667 12.1269 6.66667 11.6667V10C6.66667 9.53975 7.03977 9.16667 7.5 9.16667ZM15.8333 4.16667H4.16667V5.83333H15.8333V4.16667Z" fill="#89857E"/>
</g>
<defs>
<clipPath id="clip0_1133_5545">
<rect width="20" height="20" fill="white"/>
</clipPath>
</defs>
</svg>
