<svg width="20" height="20" viewBox="0 0 20 20" fill="none" xmlns="http://www.w3.org/2000/svg">
<path d="M2.26712 6.37496C2.43008 6.42281 2.58675 6.48996 2.73379 6.57496C3.2503 6.88324 3.84061 7.046 4.44212 7.046C5.04364 7.046 5.63394 6.88324 6.15046 6.57496C6.47584 6.39093 6.8433 6.29421 7.21712 6.29421C7.59094 6.29421 7.95841 6.39093 8.28379 6.57496C8.80654 6.87387 9.39828 7.03111 10.0005 7.03111C10.6026 7.03111 11.1944 6.87387 11.7171 6.57496C12.0425 6.39093 12.41 6.29421 12.7838 6.29421C13.1576 6.29421 13.5251 6.39093 13.8505 6.57496C14.3786 6.87679 14.9755 7.0375 15.5838 7.04163C16.1714 7.04042 16.7476 6.87908 17.2505 6.57496C17.3975 6.48996 17.5542 6.42281 17.7171 6.37496C17.9293 6.31308 18.1082 6.16944 18.2145 5.97566C18.3207 5.78187 18.3457 5.5538 18.2838 5.34163C18.2219 5.12946 18.0783 4.95056 17.8845 4.84428C17.6907 4.73801 17.4626 4.71308 17.2505 4.77496C16.9583 4.86513 16.6784 4.99108 16.4171 5.14996C16.1517 5.30521 15.8497 5.38703 15.5421 5.38703C15.2346 5.38703 14.9326 5.30521 14.6671 5.14996C14.0893 4.82586 13.4379 4.65564 12.7755 4.65564C12.113 4.65564 11.4616 4.82586 10.8838 5.14996C10.6155 5.30584 10.3107 5.38795 10.0005 5.38795C9.69017 5.38795 9.38541 5.30584 9.11712 5.14996C8.53933 4.82586 7.88795 4.65564 7.22546 4.65564C6.56296 4.65564 5.91159 4.82586 5.33379 5.14996C5.06832 5.30521 4.76632 5.38703 4.45879 5.38703C4.15126 5.38703 3.84926 5.30521 3.58379 5.14996C3.32253 4.99108 3.04263 4.86513 2.75046 4.77496C2.53828 4.71308 2.31022 4.73801 2.11643 4.84428C1.92264 4.95056 1.77901 5.12946 1.71712 5.34163C1.65524 5.5538 1.68017 5.78187 1.78645 5.97566C1.89272 6.16944 2.07162 6.31308 2.28379 6.37496H2.26712ZM17.2671 13.1083C16.9749 13.1985 16.695 13.3244 16.4338 13.4833C16.1683 13.6385 15.8663 13.7204 15.5588 13.7204C15.2513 13.7204 14.9493 13.6385 14.6838 13.4833C14.106 13.1592 13.4546 12.989 12.7921 12.989C12.1296 12.989 11.4783 13.1592 10.9005 13.4833C10.6322 13.6392 10.3274 13.7213 10.0171 13.7213C9.70684 13.7213 9.40208 13.6392 9.13379 13.4833C8.55599 13.1592 7.90461 12.989 7.24212 12.989C6.57963 12.989 5.92825 13.1592 5.35046 13.4833C5.08498 13.6385 4.78299 13.7204 4.47546 13.7204C4.16792 13.7204 3.86593 13.6385 3.60046 13.4833C3.3392 13.3244 3.0593 13.1985 2.76712 13.1083C2.66206 13.0777 2.552 13.068 2.44321 13.0799C2.33443 13.0918 2.22905 13.125 2.1331 13.1776C2.03714 13.2302 1.95249 13.3012 1.88398 13.3866C1.81547 13.4719 1.76443 13.5699 1.73379 13.675C1.70315 13.78 1.6935 13.8901 1.70539 13.9989C1.71729 14.1077 1.75049 14.213 1.80311 14.309C1.85573 14.4049 1.92674 14.4896 2.01207 14.5581C2.0974 14.6266 2.1954 14.6777 2.30046 14.7083C2.46342 14.7561 2.62008 14.8233 2.76712 14.9083C3.28364 15.2166 3.87394 15.3793 4.47546 15.3793C5.07697 15.3793 5.66728 15.2166 6.18379 14.9083C6.50917 14.7243 6.87663 14.6275 7.25046 14.6275C7.62428 14.6275 7.99174 14.7243 8.31712 14.9083C8.83987 15.2072 9.43161 15.3644 10.0338 15.3644C10.636 15.3644 11.2277 15.2072 11.7505 14.9083C12.0758 14.7243 12.4433 14.6275 12.8171 14.6275C13.1909 14.6275 13.5584 14.7243 13.8838 14.9083C14.4119 15.2101 15.0089 15.3708 15.6171 15.375C16.2048 15.3738 16.781 15.2124 17.2838 14.9083C17.4308 14.8233 17.5875 14.7561 17.7505 14.7083C17.9626 14.6464 18.1415 14.5028 18.2478 14.309C18.3541 14.1152 18.379 13.8871 18.3171 13.675C18.2552 13.4628 18.1116 13.2839 17.9178 13.1776C17.724 13.0713 17.496 13.0464 17.2838 13.1083H17.2671ZM17.2671 8.94163C16.9749 9.03179 16.695 9.15775 16.4338 9.31663C16.1683 9.47187 15.8663 9.55369 15.5588 9.55369C15.2513 9.55369 14.9493 9.47187 14.6838 9.31663C14.106 8.99252 13.4546 8.82231 12.7921 8.82231C12.1296 8.82231 11.4783 8.99252 10.9005 9.31663C10.6322 9.47251 10.3274 9.55461 10.0171 9.55461C9.70684 9.55461 9.40208 9.47251 9.13379 9.31663C8.55599 8.99252 7.90461 8.82231 7.24212 8.82231C6.57963 8.82231 5.92825 8.99252 5.35046 9.31663C5.08498 9.47187 4.78299 9.55369 4.47546 9.55369C4.16792 9.55369 3.86593 9.47187 3.60046 9.31663C3.3392 9.15775 3.0593 9.03179 2.76712 8.94163C2.65801 8.90043 2.54146 8.8826 2.42502 8.88929C2.30858 8.89597 2.19484 8.92703 2.09116 8.98044C1.98747 9.03385 1.89616 9.10843 1.82311 9.19936C1.75007 9.29029 1.69693 9.39553 1.66712 9.5083C1.63648 9.61335 1.62683 9.72342 1.63873 9.8322C1.65062 9.94099 1.68383 10.0464 1.73645 10.1423C1.78907 10.2383 1.86007 10.3229 1.9454 10.3914C2.03074 10.46 2.12873 10.511 2.23379 10.5416C2.39675 10.5895 2.55342 10.6566 2.70046 10.7416C3.21697 11.0499 3.80727 11.2127 4.40879 11.2127C5.0103 11.2127 5.60061 11.0499 6.11712 10.7416C6.4425 10.5576 6.80997 10.4609 7.18379 10.4609C7.55761 10.4609 7.92507 10.5576 8.25046 10.7416C8.77321 11.0405 9.36495 11.1978 9.96712 11.1978C10.5693 11.1978 11.161 11.0405 11.6838 10.7416C12.0092 10.5576 12.3766 10.4609 12.7505 10.4609C13.1243 10.4609 13.4917 10.5576 13.8171 10.7416C14.3452 11.0435 14.9422 11.2042 15.5505 11.2083C16.1381 11.2071 16.7143 11.0457 17.2171 10.7416C17.3642 10.6566 17.5208 10.5895 17.6838 10.5416C17.896 10.4797 18.0749 10.3361 18.1811 10.1423C18.2874 9.94853 18.3123 9.72047 18.2505 9.5083C18.1886 9.29612 18.0449 9.11722 17.8511 9.01095C17.6574 8.90468 17.4293 8.87974 17.2171 8.94163H17.2671Z" fill="#89857E"/>
</svg>
