<svg width="20" height="20" viewBox="0 0 20 20" fill="none" xmlns="http://www.w3.org/2000/svg">
<path d="M7.50033 14.1667H10.8337C11.9387 14.1667 12.9985 13.7277 13.7799 12.9463C14.5613 12.1649 15.0003 11.1051 15.0003 10V9.16667H15.8337C16.4967 9.16667 17.1326 8.90327 17.6014 8.43443C18.0703 7.96559 18.3337 7.32971 18.3337 6.66667C18.3337 6.00363 18.0703 5.36774 17.6014 4.8989C17.1326 4.43006 16.4967 4.16667 15.8337 4.16667H15.0003V3.33333C15.0003 3.11232 14.9125 2.90036 14.7562 2.74408C14.6 2.5878 14.388 2.5 14.167 2.5H4.16699C3.94598 2.5 3.73402 2.5878 3.57774 2.74408C3.42146 2.90036 3.33366 3.11232 3.33366 3.33333V10C3.33366 11.1051 3.77265 12.1649 4.55405 12.9463C5.33545 13.7277 6.39526 14.1667 7.50033 14.1667ZM15.0003 5.83333H15.8337C16.0547 5.83333 16.2666 5.92113 16.4229 6.07741C16.5792 6.23369 16.667 6.44565 16.667 6.66667C16.667 6.88768 16.5792 7.09964 16.4229 7.25592C16.2666 7.4122 16.0547 7.5 15.8337 7.5H15.0003V5.83333ZM5.00033 4.16667H13.3337V10C13.3337 10.663 13.0703 11.2989 12.6014 11.7678C12.1326 12.2366 11.4967 12.5 10.8337 12.5H7.50033C6.83728 12.5 6.2014 12.2366 5.73256 11.7678C5.26372 11.2989 5.00033 10.663 5.00033 10V4.16667ZM17.5003 15.8333H2.50033C2.27931 15.8333 2.06735 15.9211 1.91107 16.0774C1.75479 16.2337 1.66699 16.4457 1.66699 16.6667C1.66699 16.8877 1.75479 17.0996 1.91107 17.2559C2.06735 17.4122 2.27931 17.5 2.50033 17.5H17.5003C17.7213 17.5 17.9333 17.4122 18.0896 17.2559C18.2459 17.0996 18.3337 16.8877 18.3337 16.6667C18.3337 16.4457 18.2459 16.2337 18.0896 16.0774C17.9333 15.9211 17.7213 15.8333 17.5003 15.8333Z" fill="#89857E"/>
</svg>
