<svg width="20" height="20" viewBox="0 0 20 20" fill="none" xmlns="http://www.w3.org/2000/svg">
<path d="M18.333 10.0001H4.16634V5.34191C4.16342 5.04181 4.24262 4.74662 4.39538 4.48828C4.54813 4.22994 4.76863 4.0183 5.03301 3.87626C5.32535 3.71783 5.65849 3.65071 5.98938 3.68359C5.82096 4.19364 5.79703 4.74035 5.92025 5.26316C6.04346 5.78597 6.30901 6.26446 6.68747 6.64562L7.57129 7.52941C7.64865 7.60681 7.7405 7.66821 7.8416 7.7101C7.94269 7.75199 8.05105 7.77355 8.16048 7.77355C8.26991 7.77355 8.37827 7.75199 8.47937 7.7101C8.58046 7.66821 8.67231 7.60681 8.74967 7.52941L11.6956 4.58345C11.773 4.50609 11.8344 4.41424 11.8763 4.31314C11.9182 4.21204 11.9398 4.10369 11.9398 3.99426C11.9398 3.88482 11.9182 3.77647 11.8763 3.67537C11.8344 3.57428 11.773 3.48242 11.6956 3.40506L10.8119 2.52127C10.32 2.03158 9.6693 1.73373 8.97719 1.68139C8.28507 1.62905 7.59703 1.82568 7.03708 2.23583C6.53222 2.03866 5.98683 1.96781 5.44835 2.02945C4.90987 2.09109 4.3946 2.28335 3.94735 2.58951C3.50011 2.89567 3.13443 3.30646 2.88213 3.78615C2.62983 4.26585 2.49854 4.79992 2.49967 5.34191V10.0001H1.66634C1.44533 10.0001 1.23337 10.0879 1.07709 10.2442C0.920805 10.4005 0.833008 10.6124 0.833008 10.8334C0.833008 11.0545 0.920805 11.2664 1.07709 11.4227C1.23337 11.579 1.44533 11.6668 1.66634 11.6668H2.49967V14.1668C2.50126 14.6821 2.66232 15.1843 2.96073 15.6044C3.25915 16.0245 3.68029 16.342 4.16634 16.5132V17.5001C4.16634 17.7211 4.25414 17.9331 4.41042 18.0894C4.5667 18.2457 4.77866 18.3334 4.99967 18.3334C5.22069 18.3334 5.43265 18.2457 5.58893 18.0894C5.74521 17.9331 5.83301 17.7211 5.83301 17.5001V16.6668H14.1663V17.5001C14.1663 17.7211 14.2541 17.9331 14.4104 18.0894C14.5667 18.2457 14.7787 18.3334 14.9997 18.3334C15.2207 18.3334 15.4327 18.2457 15.5889 18.0894C15.7452 17.9331 15.833 17.7211 15.833 17.5001V16.5132C16.3191 16.342 16.7402 16.0246 17.0386 15.6044C17.337 15.1843 17.4981 14.6821 17.4997 14.1668V11.6668H18.333C18.554 11.6668 18.766 11.579 18.9223 11.4227C19.0785 11.2664 19.1663 11.0545 19.1663 10.8334C19.1663 10.6124 19.0785 10.4005 18.9223 10.2442C18.766 10.0879 18.554 10.0001 18.333 10.0001ZM7.86588 3.69966C8.1005 3.46567 8.41832 3.33426 8.74967 3.33426C9.08103 3.33426 9.39885 3.46567 9.63347 3.69966L9.92806 3.99426L8.16051 5.76183L7.86591 5.46724C7.63179 5.2327 7.5003 4.91484 7.50029 4.58345C7.50029 4.25206 7.63177 3.9342 7.86588 3.69966ZM15.833 14.1668C15.8329 14.3877 15.745 14.5996 15.5888 14.7559C15.4325 14.9121 15.2206 15 14.9997 15.0001H4.99967C4.77871 15 4.56683 14.9121 4.41058 14.7559C4.25433 14.5996 4.16649 14.3877 4.16634 14.1668V11.6668H15.833V14.1668Z" fill="#89857E"/>
</svg>
