<svg width="20" height="20" viewBox="0 0 20 20" fill="none" xmlns="http://www.w3.org/2000/svg">
<path d="M5.3125 2.5C4.23546 2.50132 3.20292 2.92976 2.44134 3.69134C1.67976 4.45292 1.25132 5.48546 1.25 6.5625V9.375C1.25066 9.59344 1.30875 9.80787 1.41845 9.99678C1.52815 10.1857 1.6856 10.3424 1.875 10.4513V14.0625C1.875 14.9742 2.23716 15.8485 2.88182 16.4932C3.52648 17.1378 4.40082 17.5 5.3125 17.5C6.22418 17.5 7.09852 17.1378 7.74318 16.4932C8.38784 15.8485 8.75 14.9742 8.75 14.0625V10.4513C8.9394 10.3424 9.09685 10.1857 9.20655 9.99678C9.31625 9.80787 9.37434 9.59344 9.375 9.375V6.5625C9.37368 5.48546 8.94524 4.45292 8.18366 3.69134C7.42208 2.92976 6.38954 2.50132 5.3125 2.5ZM5.3125 3.75C6.05817 3.75083 6.77306 4.04741 7.30032 4.57468C7.82759 5.10194 8.12417 5.81683 8.125 6.5625V6.875H2.5V6.5625C2.50083 5.81683 2.79741 5.10194 3.32468 4.57468C3.85194 4.04741 4.56683 3.75083 5.3125 3.75ZM8.125 9.375H2.5V8.125H8.125V9.375ZM7.5 14.0625C7.5 14.6427 7.26953 15.1991 6.8593 15.6093C6.44906 16.0195 5.89266 16.25 5.3125 16.25C4.73234 16.25 4.17594 16.0195 3.7657 15.6093C3.35547 15.1991 3.125 14.6427 3.125 14.0625V10.625H7.5V14.0625ZM14.6875 2.5C13.6105 2.50132 12.5779 2.92976 11.8163 3.69134C11.0548 4.45292 10.6263 5.48546 10.625 6.5625V9.375C10.6257 9.59344 10.6838 9.80787 10.7935 9.99678C10.9032 10.1857 11.0606 10.3424 11.25 10.4513V14.0625C11.25 14.9742 11.6122 15.8485 12.2568 16.4932C12.9015 17.1378 13.7758 17.5 14.6875 17.5C15.5992 17.5 16.4735 17.1378 17.1182 16.4932C17.7628 15.8485 18.125 14.9742 18.125 14.0625V10.4513C18.3144 10.3424 18.4718 10.1857 18.5815 9.99678C18.6912 9.80787 18.7493 9.59344 18.75 9.375V6.5625C18.7487 5.48546 18.3202 4.45292 17.5587 3.69134C16.7971 2.92976 15.7645 2.50132 14.6875 2.5ZM14.6875 3.75C15.4332 3.75083 16.1481 4.04741 16.6753 4.57468C17.2026 5.10194 17.4992 5.81683 17.5 6.5625V6.875H11.875V6.5625C11.8758 5.81683 12.1724 5.10194 12.6997 4.57468C13.2269 4.04741 13.9418 3.75083 14.6875 3.75ZM17.5 9.375H11.875V8.125H17.5V9.375ZM16.875 14.0625C16.875 14.6427 16.6445 15.1991 16.2343 15.6093C15.8241 16.0195 15.2677 16.25 14.6875 16.25C14.1073 16.25 13.5509 16.0195 13.1407 15.6093C12.7305 15.1991 12.5 14.6427 12.5 14.0625V10.625H16.875V14.0625Z" fill="#89857E"/>
</svg>
