<svg width="20" height="20" viewBox="0 0 20 20" fill="none" xmlns="http://www.w3.org/2000/svg">
<path d="M16.6667 7.70825H16.4583V6.66659C16.4583 5.86659 15.8 5.20825 15 5.20825H5C4.2 5.20825 3.54167 5.86659 3.54167 6.66659V7.70825H3.33333C2.53333 7.70825 1.875 8.36659 1.875 9.16658V14.9999C1.875 15.3416 2.15833 15.6249 2.5 15.6249H17.5C17.8417 15.6249 18.125 15.3416 18.125 14.9999V9.16658C18.125 8.36659 17.4667 7.70825 16.6667 7.70825ZM16.875 9.16658V11.0416H14.7917V9.16658C14.7917 9.04992 14.8833 8.95825 15 8.95825H16.6667C16.7833 8.95825 16.875 9.04992 16.875 9.16658ZM4.79167 6.66659C4.79167 6.54992 4.88333 6.45825 5 6.45825H15C15.1167 6.45825 15.2083 6.54992 15.2083 6.66659V7.70825H15C14.2 7.70825 13.5417 8.36659 13.5417 9.16658V11.0416H6.45833V9.16658C6.45833 8.36659 5.8 7.70825 5 7.70825H4.79167V6.66659ZM3.125 9.16658C3.125 9.04992 3.21667 8.95825 3.33333 8.95825H5C5.11667 8.95825 5.20833 9.04992 5.20833 9.16658V11.0416H3.125V9.16658ZM16.875 14.3749H3.125V12.2916H16.875V14.3749Z" fill="#89857E"/>
</svg>
