<svg width="20" height="20" viewBox="0 0 20 20" fill="none" xmlns="http://www.w3.org/2000/svg">
<path d="M16.3532 9.23667C15.8765 8.5225 15.6248 7.69083 15.6248 6.83083C15.6248 4.09833 13.4015 1.875 10.669 1.875H9.33148C6.59898 1.875 4.37565 4.09833 4.37565 6.83083C4.37565 7.69 4.12398 8.52167 3.64732 9.23667C3.03398 10.1567 2.70898 11.2292 2.70898 12.3358V14.1667C2.70898 16.3492 4.48482 18.125 6.66732 18.125H13.334C15.5165 18.125 17.2923 16.3492 17.2923 14.1667V12.3358C17.2923 11.2292 16.9665 10.1575 16.3532 9.23667ZM4.68648 9.93C5.29982 9.01 5.62482 7.9375 5.62482 6.83083C5.62482 4.7875 7.28732 3.125 9.33065 3.125H10.6682C12.7115 3.125 14.374 4.7875 14.374 6.83083C14.374 7.9375 14.699 9.00917 15.3123 9.93C15.634 10.4117 15.8432 10.9492 15.9523 11.51C15.6298 12.7108 14.574 13.5417 13.3323 13.5417H6.66565C5.42398 13.5417 4.36815 12.7117 4.04565 11.5125C4.15398 10.9508 4.36482 10.4125 4.68648 9.93ZM16.0415 14.1667C16.0415 15.66 14.8265 16.875 13.3332 16.875H6.66648C5.17315 16.875 3.95815 15.66 3.95815 14.1667V13.7075C4.67232 14.3817 5.62065 14.7917 6.66648 14.7917H13.3332C14.379 14.7917 15.3273 14.3808 16.0415 13.7075V14.1667ZM6.22482 11.275C5.98065 11.0308 5.98065 10.635 6.22482 10.3908C6.69648 9.91917 7.34982 9.6725 8.00398 9.53667C7.79982 9.38083 7.56648 9.24583 7.28898 9.14667C6.96398 9.03 6.79482 8.67333 6.91148 8.3475C7.02815 8.0225 7.38315 7.85167 7.71065 7.97C8.19898 8.14417 8.62315 8.39 8.97065 8.69917C9.19982 8.90333 9.37648 9.13583 9.52815 9.37917C9.70148 9.37583 9.86482 9.37417 9.99982 9.37417C10.1348 9.37417 10.2982 9.37583 10.4715 9.37917C10.6232 9.135 10.7998 8.9025 11.0298 8.69917C11.3757 8.39083 11.799 8.145 12.2882 7.96917C12.6148 7.85083 12.9707 8.02083 13.0882 8.34583C13.2048 8.67083 13.0365 9.02833 12.7115 9.14583C12.4332 9.24583 12.1998 9.38167 11.9957 9.53667C12.6498 9.6725 13.304 9.91917 13.7748 10.3908C14.019 10.635 14.019 11.0308 13.7748 11.275C13.6532 11.3967 13.4932 11.4583 13.3332 11.4583C13.1732 11.4583 13.0132 11.3975 12.8915 11.275C12.2415 10.625 10.7273 10.625 9.99982 10.625C9.27232 10.625 7.75898 10.625 7.10815 11.275C6.86398 11.5192 6.46898 11.5192 6.22482 11.275Z" fill="#89857E"/>
</svg>
