<svg width="20" height="20" viewBox="0 0 20 20" fill="none" xmlns="http://www.w3.org/2000/svg">
<path d="M16.25 3.54175H3.75C2.71583 3.54175 1.875 4.38258 1.875 5.41675V6.25008C1.875 7.19091 2.57417 7.96508 3.47917 8.09758L2.71167 15.7709C2.67667 16.1142 2.9275 16.4209 3.27083 16.4551C3.29167 16.4576 3.31333 16.4584 3.33417 16.4584C3.65083 16.4584 3.92333 16.2176 3.955 15.8959L4.23167 13.1251H15.7675L16.0442 15.8959C16.0767 16.2184 16.3483 16.4584 16.665 16.4584C16.6858 16.4584 16.7067 16.4584 16.7283 16.4551C17.0717 16.4209 17.3225 16.1142 17.2875 15.7709L16.52 8.09758C17.425 7.96508 18.1242 7.19091 18.1242 6.25008V5.41675C18.1242 4.38258 17.2842 3.54175 16.25 3.54175ZM4.3575 11.8751L4.7325 8.12508H15.2683L15.6433 11.8751H4.3575ZM16.875 6.25008C16.875 6.59508 16.595 6.87508 16.25 6.87508H3.75C3.405 6.87508 3.125 6.59508 3.125 6.25008V5.41675C3.125 5.07175 3.405 4.79175 3.75 4.79175H16.25C16.595 4.79175 16.875 5.07175 16.875 5.41675V6.25008Z" fill="#89857E"/>
</svg>
