<svg width="20" height="20" viewBox="0 0 20 20" fill="none" xmlns="http://www.w3.org/2000/svg">
<path d="M5.83301 10.4167C6.32746 10.4167 6.81081 10.27 7.22193 9.99534C7.63306 9.72064 7.95349 9.33019 8.14271 8.87337C8.33193 8.41656 8.38143 7.91389 8.28497 7.42894C8.18851 6.94399 7.95041 6.49853 7.60078 6.1489C7.25114 5.79927 6.80569 5.56117 6.32073 5.4647C5.83578 5.36824 5.33311 5.41775 4.8763 5.60697C4.41948 5.79619 4.02904 6.11662 3.75433 6.52774C3.47963 6.93886 3.33301 7.42221 3.33301 7.91667C3.33301 8.57971 3.5964 9.21559 4.06524 9.68443C4.53408 10.1533 5.16997 10.4167 5.83301 10.4167ZM5.83301 7.08333C5.99783 7.08333 6.15894 7.13221 6.29598 7.22378C6.43302 7.31534 6.53983 7.44549 6.60291 7.59776C6.66598 7.75004 6.68248 7.91759 6.65033 8.07924C6.61818 8.24089 6.53881 8.38938 6.42226 8.50592C6.30572 8.62247 6.15723 8.70183 5.99558 8.73399C5.83393 8.76614 5.66638 8.74964 5.51411 8.68657C5.36183 8.62349 5.23168 8.51668 5.14012 8.37964C5.04855 8.2426 4.99967 8.08148 4.99967 7.91667C4.99967 7.69565 5.08747 7.48369 5.24375 7.32741C5.40003 7.17113 5.61199 7.08333 5.83301 7.08333ZM16.6663 5.41667H9.99967C9.77866 5.41667 9.5667 5.50446 9.41042 5.66074C9.25414 5.81702 9.16634 6.02899 9.16634 6.25V11.25H2.49967V4.58333C2.49967 4.36232 2.41188 4.15036 2.2556 3.99408C2.09932 3.8378 1.88735 3.75 1.66634 3.75C1.44533 3.75 1.23337 3.8378 1.07709 3.99408C0.920805 4.15036 0.833008 4.36232 0.833008 4.58333V15.4167C0.833008 15.6377 0.920805 15.8496 1.07709 16.0059C1.23337 16.1622 1.44533 16.25 1.66634 16.25C1.88735 16.25 2.09932 16.1622 2.2556 16.0059C2.41188 15.8496 2.49967 15.6377 2.49967 15.4167V12.9167H17.4997V15.4167C17.4997 15.6377 17.5875 15.8496 17.7438 16.0059C17.9 16.1622 18.112 16.25 18.333 16.25C18.554 16.25 18.766 16.1622 18.9223 16.0059C19.0785 15.8496 19.1663 15.6377 19.1663 15.4167V7.91667C19.1663 7.25363 18.903 6.61774 18.4341 6.1489C17.9653 5.68006 17.3294 5.41667 16.6663 5.41667ZM17.4997 11.25H10.833V7.08333H16.6663C16.8874 7.08333 17.0993 7.17113 17.2556 7.32741C17.4119 7.48369 17.4997 7.69565 17.4997 7.91667V11.25Z" fill="#89857E"/>
</svg>
