<svg width="20" height="20" viewBox="0 0 20 20" fill="none" xmlns="http://www.w3.org/2000/svg">
<g clip-path="url(#clip0_1133_5537)">
<path d="M14.1663 1.66663C14.8294 1.66663 15.4653 1.93002 15.9341 2.39886C16.4029 2.8677 16.6663 3.50358 16.6663 4.16663V15.8333C16.6663 16.4963 16.4029 17.1322 15.9341 17.6011C15.4653 18.0699 14.8294 18.3333 14.1663 18.3333H5.83301C5.16997 18.3333 4.53408 18.0699 4.06524 17.6011C3.5964 17.1322 3.33301 16.4963 3.33301 15.8333V4.16663C3.33301 3.50358 3.5964 2.8677 4.06524 2.39886C4.53408 1.93002 5.16997 1.66663 5.83301 1.66663H14.1663ZM14.9997 8.33329H4.99967V15.8333C4.99967 16.0543 5.08747 16.2663 5.24375 16.4225C5.40003 16.5788 5.61199 16.6666 5.83301 16.6666H14.1663C14.3874 16.6666 14.5993 16.5788 14.7556 16.4225C14.9119 16.2663 14.9997 16.0543 14.9997 15.8333V8.33329ZM9.99967 9.16663C10.8837 9.16663 11.7316 9.51782 12.3567 10.1429C12.9818 10.7681 13.333 11.6159 13.333 12.5C13.333 13.384 12.9818 14.2319 12.3567 14.857C11.7316 15.4821 10.8837 15.8333 9.99967 15.8333C9.11562 15.8333 8.26777 15.4821 7.64265 14.857C7.01753 14.2319 6.66634 13.384 6.66634 12.5C6.66634 11.6159 7.01753 10.7681 7.64265 10.1429C8.26777 9.51782 9.11562 9.16663 9.99967 9.16663ZM9.99967 10.8333C9.55765 10.8333 9.13372 11.0089 8.82116 11.3214C8.5086 11.634 8.33301 12.0579 8.33301 12.5C8.33301 12.942 8.5086 13.3659 8.82116 13.6785C9.13372 13.991 9.55765 14.1666 9.99967 14.1666C10.4417 14.1666 10.8656 13.991 11.1782 13.6785C11.4907 13.3659 11.6663 12.942 11.6663 12.5C11.6663 12.0579 11.4907 11.634 11.1782 11.3214C10.8656 11.0089 10.4417 10.8333 9.99967 10.8333ZM14.1663 3.33329H5.83301C5.6289 3.33332 5.43189 3.40826 5.27936 3.54389C5.12684 3.67952 5.02939 3.86642 5.00551 4.06913L4.99967 4.16663V6.66663H14.9997V4.16663C14.9997 3.94561 14.9119 3.73365 14.7556 3.57737C14.5993 3.42109 14.3874 3.33329 14.1663 3.33329ZM13.333 4.16663C13.5454 4.16686 13.7497 4.24819 13.9041 4.394C14.0586 4.53981 14.1515 4.73909 14.164 4.95112C14.1764 5.16316 14.1074 5.37194 13.9711 5.53482C13.8348 5.6977 13.6414 5.80237 13.4305 5.82746L13.333 5.83329H12.4997C12.2873 5.83306 12.083 5.75173 11.9285 5.60592C11.7741 5.46011 11.6811 5.26083 11.6687 5.0488C11.6562 4.83676 11.7252 4.62798 11.8616 4.4651C11.9979 4.30222 12.1913 4.19755 12.4022 4.17246L12.4997 4.16663H13.333ZM9.99967 4.16663C10.2207 4.16663 10.4326 4.25442 10.5889 4.4107C10.7452 4.56698 10.833 4.77895 10.833 4.99996C10.833 5.22097 10.7452 5.43293 10.5889 5.58921C10.4326 5.74549 10.2207 5.83329 9.99967 5.83329C9.77866 5.83329 9.5667 5.74549 9.41042 5.58921C9.25414 5.43293 9.16634 5.22097 9.16634 4.99996C9.16634 4.77895 9.25414 4.56698 9.41042 4.4107C9.5667 4.25442 9.77866 4.16663 9.99967 4.16663Z" fill="#89857E"/>
</g>
<defs>
<clipPath id="clip0_1133_5537">
<rect width="20" height="20" fill="white"/>
</clipPath>
</defs>
</svg>
