<svg width="20" height="20" viewBox="0 0 20 20" fill="none" xmlns="http://www.w3.org/2000/svg">
<path d="M9.99983 12.5001C9.50538 12.5001 9.02203 12.6467 8.6109 12.9214C8.19978 13.1961 7.87935 13.5865 7.69013 14.0433C7.50091 14.5002 7.4514 15.0028 7.54787 15.4878C7.64433 15.9727 7.88243 16.4182 8.23206 16.7678C8.58169 17.1174 9.02715 17.3556 9.5121 17.452C9.99706 17.5485 10.4997 17.499 10.9565 17.3097C11.4134 17.1205 11.8038 16.8001 12.0785 16.389C12.3532 15.9779 12.4998 15.4945 12.4998 15.0001C12.4998 14.337 12.2364 13.7011 11.7676 13.2323C11.2988 12.7634 10.6629 12.5001 9.99983 12.5001ZM9.99983 15.8334C9.83501 15.8334 9.67389 15.7845 9.53685 15.6929C9.39981 15.6014 9.293 15.4712 9.22993 15.319C9.16686 15.1667 9.15035 14.9991 9.18251 14.8375C9.21466 14.6758 9.29403 14.5273 9.41057 14.4108C9.52712 14.2943 9.6756 14.2149 9.83725 14.1827C9.99891 14.1506 10.1665 14.1671 10.3187 14.2302C10.471 14.2932 10.6012 14.4 10.6927 14.5371C10.7843 14.6741 10.8332 14.8352 10.8332 15.0001C10.8332 15.2211 10.7454 15.433 10.5891 15.5893C10.4328 15.7456 10.2208 15.8334 9.99983 15.8334ZM9.99983 9.16672C8.45378 9.17204 6.97195 9.78573 5.87483 10.8751C5.71962 11.0312 5.6325 11.2424 5.6325 11.4626C5.6325 11.6827 5.71962 11.8939 5.87483 12.05C6.03096 12.2053 6.24217 12.2924 6.46233 12.2924C6.68248 12.2924 6.89369 12.2053 7.04983 12.05C7.43688 11.662 7.89667 11.3542 8.40288 11.1441C8.90909 10.9341 9.45177 10.8259 9.99983 10.8259C10.5479 10.8259 11.0906 10.9341 11.5968 11.1441C12.103 11.3542 12.5628 11.662 12.9498 12.05C13.1037 12.2071 13.3134 12.2969 13.5332 12.3C13.7022 12.3098 13.8703 12.2678 14.0149 12.1796C14.1595 12.0914 14.2738 11.9613 14.3426 11.8065C14.4113 11.6518 14.4313 11.4797 14.3999 11.3133C14.3684 11.1469 14.287 10.994 14.1665 10.8751C13.6182 10.3306 12.968 9.89956 12.2531 9.60645C11.5382 9.31333 10.7725 9.16391 9.99983 9.16672ZM9.99983 5.83338C7.56982 5.83984 5.24031 6.80398 3.5165 8.51672C3.4388 8.59442 3.37716 8.68666 3.33511 8.78818C3.29306 8.88969 3.27142 8.9985 3.27142 9.10838C3.27142 9.3303 3.35958 9.54313 3.5165 9.70005C3.67342 9.85697 3.88624 9.94513 4.10816 9.94513C4.33008 9.94513 4.54291 9.85697 4.69983 9.70005C6.10608 8.29555 8.01232 7.50665 9.99983 7.50665C11.9873 7.50665 13.8936 8.29555 15.2998 9.70005C15.3777 9.77728 15.47 9.83839 15.5716 9.87986C15.6731 9.92133 15.7818 9.94235 15.8915 9.94172C16.0012 9.94235 16.1099 9.92133 16.2114 9.87986C16.3129 9.83839 16.4053 9.77728 16.4832 9.70005C16.5613 9.62258 16.6233 9.53041 16.6656 9.42886C16.7079 9.32731 16.7297 9.21839 16.7297 9.10838C16.7297 8.99837 16.7079 8.88945 16.6656 8.7879C16.6233 8.68635 16.5613 8.59419 16.4832 8.51672C14.7593 6.80398 12.4298 5.83984 9.99983 5.83338ZM18.8415 6.15838C17.6807 4.9968 16.3023 4.07534 14.7852 3.44666C13.2681 2.81797 11.642 2.49438 9.99983 2.49438C8.35763 2.49438 6.73153 2.81797 5.21444 3.44666C3.69734 4.07534 2.319 4.9968 1.15816 6.15838C1.00124 6.3153 0.913086 6.52813 0.913086 6.75005C0.913086 6.97197 1.00124 7.1848 1.15816 7.34172C1.31508 7.49864 1.52791 7.58679 1.74983 7.58679C1.97175 7.58679 2.18458 7.49864 2.3415 7.34172C4.37298 5.31129 7.12763 4.1707 9.99983 4.1707C12.872 4.1707 15.6267 5.31129 17.6582 7.34172C17.7356 7.41982 17.8278 7.48182 17.9293 7.52413C18.0309 7.56643 18.1398 7.58822 18.2498 7.58822C18.3598 7.58822 18.4688 7.56643 18.5703 7.52413C18.6719 7.48182 18.764 7.41982 18.8415 7.34172C18.9196 7.26425 18.9816 7.17208 19.0239 7.07053C19.0662 6.96898 19.088 6.86006 19.088 6.75005C19.088 6.64004 19.0662 6.53112 19.0239 6.42957C18.9816 6.32802 18.9196 6.23585 18.8415 6.15838Z" fill="#89857E"/>
</svg>
