<svg width="20" height="20" viewBox="0 0 20 20" fill="none" xmlns="http://www.w3.org/2000/svg">
<g clip-path="url(#clip0_1133_5549)">
<path fill-rule="evenodd" clip-rule="evenodd" d="M17.5003 4.16675C17.7213 4.16675 17.9333 4.25455 18.0896 4.41083C18.2459 4.56711 18.3337 4.77907 18.3337 5.00008C18.3337 5.2211 18.2459 5.43306 18.0896 5.58934C17.9333 5.74562 17.7213 5.83341 17.5003 5.83341V15.8334C17.5003 16.0544 17.4125 16.2664 17.2562 16.4227C17.1 16.579 16.888 16.6667 16.667 16.6667C16.446 16.6667 16.234 16.579 16.0777 16.4227C15.9215 16.2664 15.8337 16.0544 15.8337 15.8334V14.1667H12.917C12.5855 14.1667 12.2675 14.0351 12.0331 13.8006C11.7987 13.5662 11.667 13.2483 11.667 12.9167V9.16675H4.16699V15.8334C4.16699 16.0544 4.07919 16.2664 3.92291 16.4227C3.76663 16.579 3.55467 16.6667 3.33366 16.6667C3.11265 16.6667 2.90068 16.579 2.7444 16.4227C2.58812 16.2664 2.50033 16.0544 2.50033 15.8334V5.83341C2.27931 5.83341 2.06735 5.74562 1.91107 5.58934C1.75479 5.43306 1.66699 5.2211 1.66699 5.00008C1.66699 4.77907 1.75479 4.56711 1.91107 4.41083C2.06735 4.25455 2.27931 4.16675 2.50033 4.16675H17.5003ZM15.8337 9.16675H13.3337V12.5001H15.8337V9.16675ZM15.8337 5.83341H13.3337V7.50008H15.8337V5.83341ZM11.667 5.83341H4.16699V7.50008H11.667V5.83341Z" fill="#89857E"/>
</g>
<defs>
<clipPath id="clip0_1133_5549">
<rect width="20" height="20" fill="white"/>
</clipPath>
</defs>
</svg>
